<svg width="104" height="35" viewBox="0 0 104 35" fill="none" xmlns="http://www.w3.org/2000/svg">
<path d="M9.83791 0H16L14.8984 1.86892C14.8036 2.03008 14.7266 2.18983 14.6223 2.4344C14.2514 3.31232 13.6154 5.37067 13.6099 5.39188L7.76374 25L2.37088 5.14872C2.37088 5.14872 1.67857 2.81469 1.12637 1.83641C0.95467 1.53246 0.618132 0.975458 0.615385 0.969803L0 0H8.03846C8.03846 0 7.11264 1.22851 6.81456 1.81944C6.6044 2.23366 6.54121 2.66201 6.5989 3.07481L8.8283 11.7041L10.9794 3.81842C11.1387 3.34907 11.3297 2.52912 10.9492 1.8774L9.83791 0Z" fill="white"/>
<path d="M23.6949 25C23.6949 25 24.1226 24.3399 24.1226 23.8392C23.2672 24.4376 22.2145 24.8015 20.9287 24.9459C20.6334 24.9789 20.3506 24.994 20.0802 24.994C18.0893 24.994 16.809 24.1535 16.0598 23.3941C14.9216 22.2409 14.2952 20.5448 14.3422 18.7404C14.3849 17.0909 15.21 15.5287 16.5482 14.5618C17.6823 13.7424 19.0496 13.4492 20.4306 13.7018C20.1354 12.8973 19.7656 11.8508 19.4745 11.2464C19.0579 10.3848 18.3639 9.439 17.3857 9.65853C16.0019 9.96828 15.4611 11.8643 15.4611 11.8643L14 9.28714L14.3808 8.91574C15.9674 7.36851 18.0383 6.6994 19.9202 7.12643C21.1674 7.40911 22.8906 8.30677 24.0122 10.9742C26.3673 16.5722 28.8383 23.1791 28.8383 23.1791C29.2081 23.9926 30 25 30 25H23.6949ZM23.43 21.6033C23.0216 20.2576 21.5164 16.4309 21.5164 16.4309C21.4157 16.1737 21.0225 15.9753 20.5231 15.9753C20.3478 15.9753 20.1602 15.9993 19.9671 16.0549C19.5835 16.1647 18.346 16.6639 18.5267 18.5028C18.7888 21.1613 20.105 21.9431 21.1619 22.1311C22.3291 22.3401 23.2548 21.8469 23.4286 21.6048L23.43 21.6033Z" fill="white"/>
<path d="M40.1208 21.4159L40.1249 11.699C40.1249 10.9843 39.5051 10.5509 38.7952 10.5434C36.991 10.5239 36.3228 13.0381 36.3027 13.0817V21.273C36.343 21.7996 36.5111 22.4376 36.7867 23.062C37.0058 23.5586 37.6888 25 37.6888 25H30.4275C30.4275 25 31.1266 23.5586 31.3458 23.062C31.5851 22.5219 31.7437 21.9531 31.8069 21.4159L31.8109 10.739C31.7733 10.2124 31.6039 9.57292 31.3256 8.93946C31.1065 8.44444 30.851 8.11041 30.8483 8.10589L30 7.0045H34.973L35.1236 7.11734C35.7259 7.57175 36.0217 8.63703 36.1655 9.59248C36.5043 9.1787 38.0854 7.12035 40.1746 7.0045C41.2354 6.94582 42.3701 7.46642 43.2049 8.27592C43.9229 8.97106 44.3759 9.95961 44.5225 11.0098C44.583 11.4417 44.583 11.8735 44.6152 12.9072V21.273C44.6542 21.7996 44.8223 22.4376 45.0979 23.062C45.317 23.5586 46 25 46 25H38.7388C38.7388 25 39.4379 23.5586 39.657 23.062C39.8963 22.5219 40.055 21.9531 40.1181 21.4159H40.1208Z" fill="white"/>
<path d="M62.97 29.4247C63.0908 30.568 62.907 32.2445 61.2839 33.5036C60.0123 34.4891 58.2618 35 56.1813 35C55.8567 35 55.524 34.9874 55.1847 34.9623C50.6092 34.6259 48.3852 32.5195 48.2926 32.4301L47.6823 31.8397L51.1162 29.9342L51.3711 30.5526C51.402 30.6238 52.2215 32.5223 55.2946 32.9033C56.8064 33.0918 59.0599 32.6646 60.0646 31.7978C60.7286 31.2255 60.903 30.5038 60.6186 29.8226C60.0874 28.5495 56.6709 28.7324 53.6944 29.2419C50.5529 29.7779 48.2846 28.992 47.3845 27.1089C46.7822 25.8512 46.8949 24.0993 47.6702 22.6462C47.9761 22.0739 48.3651 21.5867 48.7179 21.2126C47.6126 19.7497 47.0089 17.9532 47.0089 16.0896C47.0089 11.5097 50.5904 7.78258 54.9915 7.78258C55.9667 7.78258 56.9191 7.96544 57.8285 8.32698C58.2162 7.9794 58.801 7.50479 59.5066 7.09998C60.7272 6.39923 61.402 6.21218 61.4757 6.19264L62.2148 6V10.8508C62.2148 10.8508 60.8211 9.15615 59.9023 9.54561C61.8218 11.1062 62.9741 13.517 62.9741 16.0896C62.9741 20.6696 59.3926 24.3967 54.9915 24.3967C53.1887 24.3967 51.4476 23.7601 50.0378 22.5932C49.6313 22.9966 48.9553 23.6959 49.241 24.5446C49.5441 25.4464 50.805 25.6795 53.3429 25.2398C56.0646 24.7666 59.135 24.3897 61.135 25.9043C62.6347 27.0419 62.8802 28.5816 62.97 29.4275V29.4247ZM51.7816 17.4506C52.5623 19.4468 53.9157 21.0674 55.3121 21.6775C56.0016 21.979 56.6602 22.0139 57.2169 21.7766C58.9566 21.0367 59.406 17.8038 58.1987 14.7188C57.4167 12.7227 56.0646 11.102 54.6682 10.492C53.9788 10.1905 53.3201 10.1556 52.7648 10.3929C51.025 11.1328 50.5757 14.3657 51.7829 17.4506H51.7816Z" fill="white"/>
<path d="M81 16.0218C81 20.9577 77.1864 25 72.5 25C67.8137 25 64 20.9592 64 16.0218C64 11.0844 67.8137 7 72.5 7C77.1864 7 81 11.0859 81 16.0218ZM75.9137 14.4768C75.0824 12.3255 73.6412 10.5789 72.1543 9.92002C71.7416 9.73648 71.3388 9.64471 70.9603 9.64471C70.666 9.64471 70.3846 9.70038 70.1261 9.8117C68.2736 10.609 67.7951 14.1624 69.0806 17.4886C69.9119 19.6399 71.3516 21.4105 72.8399 22.0695C73.5741 22.3944 74.2754 22.432 74.8682 22.1763C76.7207 21.3789 77.1992 17.8 75.9151 14.4753L75.9137 14.4768Z" fill="white"/>
<path d="M104 7L102.863 9.02697C102.847 9.06442 102.711 9.37453 102.504 9.85993C100.982 13.421 95.7944 25 95.7944 25C95.7944 25 93.1331 18.2929 91.9411 15.2981C90.2279 19.379 87.8785 25 87.8785 25C87.8785 25 81.3431 9.39551 81.1588 8.98502C80.84 8.27491 80 7.0015 80 7.0015H87.1868C87.1868 7.0015 86.455 8.58352 87.1286 10.7708L89.3907 16.3603C89.7802 15.439 90.3027 14.2989 90.7615 13.1813C89.338 9.61423 89.1675 9.05993 89.137 8.98802C88.7975 8.15955 88.1072 7.003 88.1072 7.003H95.7542C95.7542 7.003 95.3204 7.96479 95.0431 8.97903C94.8865 9.55281 94.7978 10.1521 95.0307 10.7393L97.3052 16.3813C97.9886 14.7618 99.0891 12.2195 99.5119 11.0839C99.7115 10.5476 99.8653 9.75805 99.4675 9.04345L98.3226 7.003H103.999L104 7Z" fill="white"/>
</svg>
