<svg width="22" height="22" viewBox="0 0 22 22" fill="none" xmlns="http://www.w3.org/2000/svg">
<path d="M4.32571 9.56547C4.02497 9.70606 3.95157 9.96125 3.92907 10.2519C3.89474 10.6961 3.54072 11.0163 3.11329 10.9974C2.68705 10.9785 2.35908 10.6252 2.36263 10.1834C2.36619 9.77931 2.49524 9.41425 2.71784 9.0799C2.76638 9.00665 2.81729 8.93577 2.88596 8.83653C2.54734 8.84125 2.28567 8.96058 2.07492 9.15433C1.8547 9.35754 1.65815 9.59146 1.47344 9.82893C1.16323 10.2271 0.71094 10.331 0.336794 10.0676C-0.0373514 9.80412 -0.101282 9.33155 0.187616 8.92041C0.855395 7.9729 1.72564 7.3432 2.91438 7.25223C3.21985 7.2286 3.53125 7.27704 3.87106 7.29358C3.8971 7.22742 3.93736 7.13291 3.97288 7.03603C4.56962 5.41866 5.89926 4.57157 7.61725 4.71452C8.12638 4.75706 8.4425 5.11148 8.39988 5.58878C8.36081 6.02237 7.97009 6.33308 7.49056 6.27637C6.62387 6.17241 6.03186 6.56582 5.5997 7.27468C5.58786 7.29358 5.58431 7.31839 5.57602 7.34438C5.9774 7.36919 6.37522 7.37392 6.76713 7.42118C7.3094 7.48616 7.81261 7.67991 8.26963 7.98236C8.65444 8.23754 8.75627 8.70185 8.51118 9.074C8.2649 9.44969 7.76525 9.55011 7.39229 9.27011C6.93171 8.92513 6.41311 8.92041 5.8294 8.92868C6.53151 9.99551 7.04774 11.1001 7.4136 12.2733C7.77709 13.4382 7.99021 14.6338 8.08493 15.8625C8.60471 15.8093 9.09844 15.7573 9.62769 15.703C10.1333 11.7287 11.393 8.02725 13.8439 4.75706C12.9559 4.41799 12.0845 4.14508 11.1527 4.35773C10.8768 4.42035 10.6081 4.57512 10.3701 4.73815C9.96395 5.01697 9.49153 4.99098 9.21092 4.63182C8.93386 4.27858 9.00254 3.82136 9.3826 3.50592C10.209 2.82188 11.1752 2.6234 12.2124 2.73799C12.7511 2.79707 13.2827 2.92939 13.8238 3.02981C13.4497 2.41192 12.9086 1.9937 12.2124 1.77277C11.3256 1.49159 10.421 1.53766 9.51521 1.64872C9.36129 1.66762 9.20855 1.70306 9.05463 1.71842C8.65207 1.75741 8.27319 1.48096 8.20097 1.10172C8.12045 0.679947 8.35725 0.256995 8.77639 0.182566C10.3381 -0.0938887 11.8797 -0.131694 13.3538 0.610243C14.494 1.18442 15.2813 2.04804 15.6555 3.27673C15.6649 3.30744 15.678 3.33698 15.691 3.36651C15.6934 3.3736 15.7028 3.37833 15.7194 3.39369C15.9266 3.36179 16.1421 3.32044 16.3588 3.29563C17.9228 3.1196 19.1897 3.71031 20.2411 4.82558C21.0332 5.66676 21.5589 6.66979 21.9449 7.74961C22.0893 8.15484 21.881 8.58607 21.4938 8.73729C21.0948 8.89206 20.6721 8.69948 20.4779 8.29543C20.1713 7.65628 19.893 6.99823 19.526 6.39452C19.0512 5.61595 18.3704 5.06423 17.4409 4.89056C17.2847 4.86102 17.1248 4.85393 16.946 4.88111C17.0265 4.95672 17.1082 5.02997 17.1864 5.10794C17.9643 5.87232 18.606 6.72532 18.7706 7.83468C18.8298 8.23046 18.7954 8.65104 18.741 9.05155C18.6853 9.45678 18.2674 9.70015 17.853 9.63399C17.4717 9.57374 17.152 9.21458 17.216 8.83062C17.3557 7.9859 17.0407 7.29949 16.5056 6.69932C16.1338 6.2811 15.7099 5.90777 15.2789 5.48363C12.9121 8.54708 11.7139 11.9968 11.2095 15.755C11.515 15.7975 11.8122 15.8341 12.107 15.8826C13.9564 16.185 15.6839 16.836 17.3379 17.702C18.8641 18.5006 20.2814 19.4658 21.6276 20.5386C21.9662 20.8079 22.0716 21.1151 21.9532 21.4613C21.8301 21.8204 21.5554 21.9976 21.1114 21.9976C14.3708 21.9976 7.62909 21.9976 0.888545 22C0.516767 22 0.229052 21.8748 0.0727635 21.5298C-0.0787893 21.1931 0.0183027 20.9001 0.25392 20.6284C1.65105 19.0145 3.25774 17.6701 5.21608 16.7816C5.59497 16.6103 5.99161 16.478 6.37286 16.3138C6.44153 16.2843 6.52915 16.1826 6.52441 16.12C6.3622 13.7714 5.75244 11.568 4.38255 9.61627C4.37308 9.60327 4.35768 9.595 4.32571 9.56901V9.56547ZM3.13697 20.4051H18.5729C16.2356 18.881 13.8676 17.6027 11.0603 17.3334C11.039 17.6015 11.0177 17.8284 11.0035 18.0552C10.9739 18.5337 10.6317 18.8692 10.1865 18.8527C9.74135 18.8361 9.41812 18.4723 9.43233 17.9961C9.43825 17.7941 9.45838 17.5933 9.47496 17.357C7.00749 17.6512 5.0006 18.8196 3.13697 20.4051Z" fill="#001925" fill-opacity="0.22"/>
<path d="M4.32571 9.56547C4.02497 9.70606 3.95157 9.96125 3.92907 10.2519C3.89474 10.6961 3.54072 11.0163 3.11329 10.9974C2.68705 10.9785 2.35908 10.6252 2.36263 10.1834C2.36619 9.77931 2.49524 9.41425 2.71784 9.0799C2.76638 9.00665 2.81729 8.93577 2.88596 8.83653C2.54734 8.84125 2.28567 8.96058 2.07492 9.15433C1.8547 9.35754 1.65815 9.59146 1.47344 9.82893C1.16323 10.2271 0.71094 10.331 0.336794 10.0676C-0.0373514 9.80412 -0.101282 9.33155 0.187616 8.92041C0.855395 7.9729 1.72564 7.3432 2.91438 7.25223C3.21985 7.2286 3.53125 7.27704 3.87106 7.29358C3.8971 7.22742 3.93736 7.13291 3.97288 7.03603C4.56962 5.41866 5.89926 4.57157 7.61725 4.71452C8.12638 4.75706 8.4425 5.11148 8.39988 5.58878C8.36081 6.02237 7.97009 6.33308 7.49056 6.27637C6.62387 6.17241 6.03186 6.56582 5.5997 7.27468C5.58786 7.29358 5.58431 7.31839 5.57602 7.34438C5.9774 7.36919 6.37522 7.37392 6.76713 7.42118C7.3094 7.48616 7.81261 7.67991 8.26963 7.98236C8.65444 8.23754 8.75627 8.70185 8.51118 9.074C8.2649 9.44969 7.76525 9.55011 7.39229 9.27011C6.93171 8.92513 6.41311 8.92041 5.8294 8.92868C6.53151 9.99551 7.04774 11.1001 7.4136 12.2733C7.77709 13.4382 7.99021 14.6338 8.08493 15.8625C8.60471 15.8093 9.09844 15.7573 9.62769 15.703C10.1333 11.7287 11.393 8.02725 13.8439 4.75706C12.9559 4.41799 12.0845 4.14508 11.1527 4.35773C10.8768 4.42035 10.6081 4.57512 10.3701 4.73815C9.96395 5.01697 9.49153 4.99098 9.21092 4.63182C8.93386 4.27858 9.00254 3.82136 9.3826 3.50592C10.209 2.82188 11.1752 2.6234 12.2124 2.73799C12.7511 2.79707 13.2827 2.92939 13.8238 3.02981C13.4497 2.41192 12.9086 1.9937 12.2124 1.77277C11.3256 1.49159 10.421 1.53766 9.51521 1.64872C9.36129 1.66762 9.20855 1.70306 9.05463 1.71842C8.65207 1.75741 8.27319 1.48096 8.20097 1.10172C8.12045 0.679947 8.35725 0.256995 8.77639 0.182566C10.3381 -0.0938887 11.8797 -0.131694 13.3538 0.610243C14.494 1.18442 15.2813 2.04804 15.6555 3.27673C15.6649 3.30744 15.678 3.33698 15.691 3.36651C15.6934 3.3736 15.7028 3.37833 15.7194 3.39369C15.9266 3.36179 16.1421 3.32044 16.3588 3.29563C17.9228 3.1196 19.1897 3.71031 20.2411 4.82558C21.0332 5.66676 21.5589 6.66979 21.9449 7.74961C22.0893 8.15484 21.881 8.58607 21.4938 8.73729C21.0948 8.89206 20.6721 8.69948 20.4779 8.29543C20.1713 7.65628 19.893 6.99823 19.526 6.39452C19.0512 5.61595 18.3704 5.06423 17.4409 4.89056C17.2847 4.86102 17.1248 4.85393 16.946 4.88111C17.0265 4.95672 17.1082 5.02997 17.1864 5.10794C17.9643 5.87232 18.606 6.72532 18.7706 7.83468C18.8298 8.23046 18.7954 8.65104 18.741 9.05155C18.6853 9.45678 18.2674 9.70015 17.853 9.63399C17.4717 9.57374 17.152 9.21458 17.216 8.83062C17.3557 7.9859 17.0407 7.29949 16.5056 6.69932C16.1338 6.2811 15.7099 5.90777 15.2789 5.48363C12.9121 8.54708 11.7139 11.9968 11.2095 15.755C11.515 15.7975 11.8122 15.8341 12.107 15.8826C13.9564 16.185 15.6839 16.836 17.3379 17.702C18.8641 18.5006 20.2814 19.4658 21.6276 20.5386C21.9662 20.8079 22.0716 21.1151 21.9532 21.4613C21.8301 21.8204 21.5554 21.9976 21.1114 21.9976C14.3708 21.9976 7.62909 21.9976 0.888545 22C0.516767 22 0.229052 21.8748 0.0727635 21.5298C-0.0787893 21.1931 0.0183027 20.9001 0.25392 20.6284C1.65105 19.0145 3.25774 17.6701 5.21608 16.7816C5.59497 16.6103 5.99161 16.478 6.37286 16.3138C6.44153 16.2843 6.52915 16.1826 6.52441 16.12C6.3622 13.7714 5.75244 11.568 4.38255 9.61627C4.37308 9.60327 4.35768 9.595 4.32571 9.56901V9.56547ZM3.13697 20.4051H18.5729C16.2356 18.881 13.8676 17.6027 11.0603 17.3334C11.039 17.6015 11.0177 17.8284 11.0035 18.0552C10.9739 18.5337 10.6317 18.8692 10.1865 18.8527C9.74135 18.8361 9.41812 18.4723 9.43233 17.9961C9.43825 17.7941 9.45838 17.5933 9.47496 17.357C7.00749 17.6512 5.0006 18.8196 3.13697 20.4051Z" fill="#001925" fill-opacity="0.22"/>
</svg>
