<svg width="32" height="35" viewBox="0 0 32 35" fill="none" xmlns="http://www.w3.org/2000/svg">
<path fill-rule="evenodd" clip-rule="evenodd" d="M0 11C0.606099 6.22555 4.58498 2.53846 9.4031 2.53846H22.5969C27.415 2.53846 31.3939 6.22555 32 11H0ZM23.4215 0C22.7384 -3.06407e-08 22.1846 0.568254 22.1846 1.26923V6.34615C22.1846 7.04713 22.7384 7.61538 23.4215 7.61538C24.1046 7.61538 24.6584 7.04713 24.6584 6.34615V1.26923C24.6584 0.568254 24.1046 3.06407e-08 23.4215 0ZM8.57849 0C7.89536 -3.06407e-08 7.34157 0.568254 7.34157 1.26923V6.34615C7.34157 7.04713 7.89536 7.61538 8.57849 7.61538C9.26162 7.61538 9.81541 7.04713 9.81541 6.34615V1.26923C9.81541 0.568254 9.26162 3.06407e-08 8.57849 0Z" fill="currentColor"/>
<path opacity="0.3" fill-rule="evenodd" clip-rule="evenodd" d="M0 14V25.7115C0 30.8414 4.2246 35 9.4359 35H22.5641C27.7754 35 32 30.8414 32 25.7115V14H0ZM6.97436 20.4615C6.29462 20.4615 5.74359 19.9191 5.74359 19.25C5.74359 18.5809 6.29462 18.0385 6.97436 18.0385H8.61539C9.29512 18.0385 9.84615 18.5809 9.84615 19.25C9.84615 19.9191 9.29512 20.4615 8.61539 20.4615H6.97436ZM13.9487 19.25C13.9487 19.9191 14.4998 20.4615 15.1795 20.4615H16.8205C17.5002 20.4615 18.0513 19.9191 18.0513 19.25C18.0513 18.5809 17.5002 18.0385 16.8205 18.0385H15.1795C14.4998 18.0385 13.9487 18.5809 13.9487 19.25ZM22.1538 19.25C22.1538 19.9191 22.7049 20.4615 23.3846 20.4615H25.0256C25.7054 20.4615 26.2564 19.9191 26.2564 19.25C26.2564 18.5809 25.7054 18.0385 25.0256 18.0385H23.3846C22.7049 18.0385 22.1538 18.5809 22.1538 19.25ZM5.74359 25.7115C5.74359 26.3807 6.29462 26.9231 6.97436 26.9231H8.61539C9.29512 26.9231 9.84615 26.3807 9.84615 25.7115C9.84615 25.0424 9.29512 24.5 8.61539 24.5H6.97436C6.29462 24.5 5.74359 25.0424 5.74359 25.7115ZM13.9487 25.7115C13.9487 26.3807 14.4998 26.9231 15.1795 26.9231H16.8205C17.5002 26.9231 18.0513 26.3807 18.0513 25.7115C18.0513 25.0424 17.5002 24.5 16.8205 24.5H15.1795C14.4998 24.5 13.9487 25.0424 13.9487 25.7115ZM22.1538 25.7115C22.1538 26.3807 22.7049 26.9231 23.3846 26.9231H25.0256C25.7054 26.9231 26.2564 26.3807 26.2564 25.7115C26.2564 25.0424 25.7054 24.5 25.0256 24.5H23.3846C22.7049 24.5 22.1538 25.0424 22.1538 25.7115Z" fill="currentColor"/>
</svg>
