<svg width="36" height="36" viewBox="0 0 36 36" fill="none" xmlns="http://www.w3.org/2000/svg">
<g clip-path="url(#clip0_226_2912)">
<path d="M35.9981 21.6612C35.9981 17.8578 35.9981 14.0544 35.9972 10.2509C35.9972 10.0268 35.9972 9.80503 35.9465 9.57951C35.8382 9.09704 35.6393 8.66522 35.3148 8.29575C34.7366 7.63699 34.0036 7.31535 33.1271 7.31629C31.6701 7.31723 30.2135 7.31957 28.7565 7.31535C28.1027 7.31348 27.5128 7.4968 26.9899 7.88877C26.5317 8.23245 26.2114 8.68022 26.0229 9.21848C25.9005 9.56778 25.8691 9.93116 25.8691 10.3016C25.8719 17.8616 25.8705 25.4215 25.8738 32.9815C25.8738 33.2375 25.8967 33.4959 25.9371 33.7486C26.014 34.2292 26.2363 34.647 26.5505 35.0136C26.8623 35.377 27.2408 35.6494 27.6952 35.8126C27.9667 35.9096 28.2392 35.9978 28.5318 35.9978C30.0747 35.9978 31.6176 36.0001 33.1604 35.9959C33.3447 35.9954 33.5304 35.9687 33.7133 35.9424C34.0454 35.8946 34.3511 35.7708 34.6339 35.5922C35.5127 35.0371 35.992 34.2414 35.9948 33.2005C36.0042 29.3544 35.9986 25.5078 35.9986 21.6612H35.9981ZM12.9343 28.1269C12.9343 29.7511 12.9315 31.3752 12.9371 32.9994C12.938 33.2474 12.9596 33.4982 12.999 33.743C13.0764 34.2273 13.2996 34.6484 13.6176 35.0178C13.9299 35.3807 14.3088 35.6527 14.7632 35.8144C15.0423 35.9138 15.3227 35.9987 15.6238 35.9982C17.2013 35.9968 18.7789 35.9987 20.357 35.9954C20.4906 35.9954 20.6247 35.9668 20.7579 35.9467C21.195 35.8801 21.5823 35.6972 21.9341 35.4361C22.4044 35.0872 22.7285 34.6287 22.9179 34.0773C23.0356 33.7345 23.0666 33.3791 23.0661 33.0167C23.0628 29.7604 23.0657 26.5046 23.0614 23.2484C23.0614 23.0041 23.0385 22.7575 23.0005 22.516C22.924 22.0312 22.7069 21.6059 22.3866 21.2388C21.8051 20.5721 21.066 20.2476 20.1806 20.249C18.7437 20.2518 17.3064 20.2537 15.8695 20.2476C15.4052 20.2457 14.9635 20.3259 14.5438 20.5252C13.9955 20.7854 13.5763 21.1835 13.2832 21.7128C13.0384 22.155 12.9315 22.6313 12.9329 23.1372C12.9366 24.8003 12.9343 26.4638 12.9343 28.1269ZM22.8335 3.38344C22.8298 3.45565 22.8335 3.49456 22.8255 3.5302C22.7439 3.88278 22.6675 4.23678 22.5747 4.58655C22.4818 4.93586 22.3913 5.28797 22.2651 5.62556C22.0808 6.12021 21.8895 6.61487 21.6583 7.08889C21.3671 7.68529 21.0552 8.27418 20.712 8.84151C20.2561 9.59498 19.7234 10.2969 19.1442 10.9613C18.3737 11.8451 17.5404 12.6646 16.6156 13.3858C16.0271 13.8448 15.4254 14.2897 14.8073 14.708C14.2671 15.0737 13.702 15.4033 13.1364 15.7296C12.7636 15.9448 12.3739 16.1324 11.9856 16.3204C11.6048 16.5051 11.2193 16.6814 10.8305 16.8488C10.5168 16.9843 10.1965 17.1062 9.87575 17.2248C9.58077 17.3341 9.28158 17.4335 8.98285 17.5315C8.70195 17.6234 8.41917 17.7087 8.13638 17.7945C7.92066 17.8601 7.70025 17.9108 7.48875 17.9877C6.84863 18.2198 6.51989 19.0351 6.9654 19.6784C7.21629 20.0404 7.68525 20.2289 8.11341 20.1318C8.30286 20.0887 8.49138 20.039 8.6785 19.9855C9.11228 19.8617 9.55076 19.7501 9.97657 19.6039C10.5163 19.4182 11.05 19.2124 11.579 18.9976C12.0287 18.8152 12.4785 18.6272 12.9108 18.4073C13.5477 18.0838 14.1723 17.7354 14.7965 17.3871C15.5651 16.9576 16.2962 16.4662 16.9936 15.9312C17.645 15.4319 18.2804 14.9086 18.8957 14.3652C19.8584 13.5156 20.726 12.5723 21.519 11.5619C22.0625 10.8694 22.5601 10.1459 23.0108 9.38821C23.4249 8.69194 23.801 7.97598 24.1016 7.22533C24.3248 6.66691 24.5096 6.09208 24.6939 5.51913C24.8599 5.00337 24.9724 4.47309 25.0451 3.9353C25.0568 3.84715 25.0887 3.76182 25.1159 3.6582C25.1736 3.71118 25.2083 3.74165 25.2411 3.77448C25.5666 4.09846 25.8836 4.43136 26.2194 4.74456C26.5631 5.06479 26.9664 5.17216 27.4171 4.98649C28.1435 4.68689 28.3583 3.72946 27.8082 3.1687C26.8708 2.21268 25.916 1.27354 24.9701 0.325966C24.8074 0.163269 24.6043 0.0643383 24.3895 0.0212026C24.1044 -0.035999 23.8258 0.023547 23.5778 0.18765C23.2274 0.419739 22.8771 0.651827 22.5273 0.884854C21.776 1.3856 21.0327 1.89854 20.2721 2.38476C19.721 2.73687 19.5063 3.43361 19.8992 4.02766C20.1745 4.44308 20.8076 4.64516 21.2316 4.41166C21.5917 4.21333 21.9341 3.98265 22.2811 3.76088C22.4602 3.64647 22.6323 3.52176 22.8335 3.38344ZM0.000906855 29.8092C0.000906855 30.8712 -0.000500018 31.9336 0.00184477 32.9956C0.00231373 33.2511 -0.00378272 33.5043 0.0562439 33.7603C0.16598 34.2297 0.364349 34.6488 0.676206 35.0122C0.988063 35.3751 1.36604 35.648 1.82046 35.8116C2.11825 35.9185 2.41791 36.0001 2.73915 35.9992C4.23888 35.9954 5.7386 35.9996 7.2388 35.9954C7.4428 35.9949 7.6482 35.9706 7.85032 35.9396C8.3038 35.8707 8.70523 35.6747 9.05789 35.3887C9.77398 34.8078 10.1276 34.0487 10.128 33.1274C10.129 30.9171 10.1271 28.7069 10.129 26.4967C10.129 25.9537 10.0047 25.4469 9.71677 24.9846C9.19576 24.1481 8.43792 23.6994 7.45827 23.6295C7.198 23.6108 6.93491 23.623 6.67324 23.6234C5.32967 23.6244 3.98611 23.6178 2.64255 23.6324C2.14639 23.638 1.68915 23.8129 1.27319 24.0839C0.895209 24.33 0.588511 24.6498 0.369508 25.0436C0.14816 25.4422 0.00137581 25.8665 0.000906855 26.3302C0.000437897 27.4902 0.000906855 28.6497 0.000906855 29.8097V29.8092ZM5.62652 19.6868C5.62136 19.0881 5.12849 18.5831 4.50056 18.5756C3.8956 18.5686 3.37459 19.0881 3.37318 19.6864C3.37224 20.2889 3.89888 20.8173 4.50571 20.8042C5.13037 20.7906 5.62043 20.2959 5.62652 19.6868Z" fill="#3DB2BB" fill-opacity="0.27"/>
<path d="M35.9981 21.6623C35.9981 25.5089 36.0038 29.355 35.9944 33.2016C35.9916 34.2425 35.5123 35.0381 34.6335 35.5933C34.3507 35.7719 34.0449 35.8957 33.7129 35.9435C33.5295 35.9698 33.3443 35.9965 33.16 35.997C31.6171 36.0012 30.0743 35.9988 28.5314 35.9988C28.2388 35.9988 27.9658 35.9111 27.6948 35.8136C27.2404 35.6509 26.8619 35.378 26.55 35.0147C26.2354 34.648 26.0131 34.2303 25.9367 33.7497C25.8963 33.497 25.8738 33.2386 25.8733 32.9826C25.8701 25.4226 25.8715 17.8626 25.8687 10.3026C25.8687 9.93222 25.9001 9.56885 26.0225 9.21955C26.2115 8.68129 26.5313 8.23352 26.9895 7.88984C27.5124 7.4974 28.1023 7.31455 28.756 7.31642C30.2131 7.32064 31.6697 7.31877 33.1267 7.31736C34.0032 7.31689 34.7357 7.63806 35.3144 8.29682C35.6389 8.66675 35.8378 9.09858 35.9461 9.58057C35.9967 9.8061 35.9967 10.0274 35.9967 10.252C35.9981 14.0554 35.9977 17.8589 35.9977 21.6623H35.9981ZM28.1267 21.6473C28.1267 25.1577 28.1267 28.6676 28.1267 32.178C28.1267 32.5062 28.1253 32.834 28.1286 33.1622C28.1295 33.2311 28.1389 33.3038 28.1628 33.3676C28.2631 33.6339 28.4657 33.7478 28.7443 33.7473C29.8651 33.7464 30.9859 33.7473 32.1072 33.7473C32.4664 33.7473 32.8261 33.7525 33.1849 33.744C33.4165 33.7384 33.6036 33.6353 33.6852 33.4088C33.726 33.2953 33.7429 33.1669 33.7429 33.0454C33.7457 26.4898 33.7453 19.9336 33.7453 13.3779C33.7453 12.3122 33.7462 11.246 33.7443 10.1803C33.7439 9.80751 33.5103 9.57589 33.138 9.57354C32.8683 9.57213 32.5991 9.57307 32.3295 9.57307C31.1346 9.57307 29.9392 9.57401 28.7443 9.57167C28.598 9.57167 28.4657 9.60214 28.3494 9.68982C28.1675 9.82767 28.1243 10.0194 28.1243 10.2379C28.1267 14.0409 28.1262 17.8443 28.1262 21.6473H28.1267Z" fill="#3DB2BB"/>
<path d="M12.9344 28.1254C12.9344 26.4624 12.9367 24.7988 12.933 23.1357C12.9316 22.6298 13.0385 22.1535 13.2833 21.7113C13.5764 21.182 13.9957 20.7839 14.5439 20.5237C14.9636 20.3244 15.4053 20.2443 15.8696 20.2461C17.3065 20.2522 18.7439 20.2503 20.1807 20.2475C21.0661 20.2461 21.8052 20.5706 22.3867 21.2373C22.707 21.6044 22.9241 22.0297 23.0006 22.5145C23.0386 22.756 23.0611 23.0026 23.0615 23.2469C23.0653 26.5031 23.063 29.7589 23.0662 33.0152C23.0662 33.3777 23.0353 33.7331 22.918 34.0758C22.7286 34.6272 22.4045 35.0857 21.9342 35.4346C21.5825 35.6957 21.1946 35.8786 20.758 35.9452C20.6248 35.9653 20.4907 35.9939 20.3571 35.9939C18.7795 35.9972 17.2019 35.9953 15.6239 35.9967C15.3228 35.9967 15.0424 35.9123 14.7633 35.8129C14.3089 35.6507 13.93 35.3792 13.6177 35.0163C13.2997 34.6469 13.0765 34.2258 12.9991 33.7415C12.9597 33.4963 12.9382 33.2459 12.9372 32.9979C12.9321 31.3737 12.9344 29.7496 12.9344 28.1254ZM20.8087 28.1278C20.8087 26.4605 20.8045 24.7937 20.812 23.1264C20.8134 22.7644 20.547 22.4976 20.1826 22.5C18.7223 22.5089 17.2615 22.5032 15.8011 22.5042C15.4255 22.5042 15.191 22.7344 15.1906 23.1057C15.1896 26.4516 15.1896 29.7979 15.1906 33.1437C15.1906 33.5085 15.426 33.7415 15.7918 33.7438C16.151 33.7462 16.5102 33.7448 16.8694 33.7448C17.9705 33.7448 19.0721 33.7434 20.1732 33.7462C20.3186 33.7462 20.4541 33.7213 20.5714 33.6365C20.7505 33.5066 20.8105 33.3233 20.8101 33.1067C20.8077 31.4473 20.8087 29.788 20.8087 28.1287V28.1278Z" fill="#3DB2BB"/>
<path d="M22.8336 3.38364C22.6325 3.52148 22.4603 3.64667 22.2812 3.76108C21.9342 3.98238 21.5918 4.21353 21.2317 4.41186C20.8077 4.64536 20.1746 4.44328 19.8994 4.02786C19.5059 3.43381 19.7207 2.73707 20.2722 2.38495C21.0328 1.89874 21.7761 1.38627 22.5274 0.885051C22.8772 0.652025 23.2271 0.419467 23.5779 0.187847C23.8259 0.0237444 24.105 -0.0362705 24.3896 0.0214C24.6044 0.0645357 24.8075 0.163466 24.9702 0.326163C25.9166 1.27374 26.8709 2.21288 27.8083 3.1689C28.3584 3.72966 28.1436 4.68755 27.4172 4.98669C26.9666 5.17236 26.5633 5.06499 26.2195 4.74476C25.8837 4.43202 25.5667 4.09866 25.2413 3.77467C25.2084 3.74185 25.1733 3.71138 25.1161 3.65839C25.0889 3.76201 25.0574 3.84735 25.0452 3.93549C24.9725 4.47328 24.86 5.00357 24.694 5.51932C24.5097 6.09228 24.3254 6.66711 24.1017 7.22553C23.8011 7.97665 23.425 8.69214 23.0109 9.3884C22.5607 10.1456 22.0627 10.8696 21.5191 11.5621C20.7261 12.5725 19.8586 13.5154 18.8958 14.3654C18.2805 14.9088 17.6451 15.4321 16.9937 15.9314C16.2959 16.4664 15.5653 16.9578 14.7966 17.3873C14.1729 17.7356 13.5478 18.084 12.911 18.4075C12.4786 18.6274 12.0293 18.8154 11.5791 18.9978C11.0501 19.2126 10.5165 19.4184 9.97669 19.6041C9.55041 19.7503 9.1124 19.8619 8.67862 19.9857C8.4915 20.0392 8.30298 20.0889 8.11352 20.132C7.68536 20.2291 7.21641 20.0406 6.96551 19.6786C6.52 19.0353 6.84874 18.2195 7.48887 17.9879C7.70037 17.9115 7.92078 17.8603 8.1365 17.7947C8.41928 17.7089 8.70206 17.6236 8.98297 17.5317C9.28216 17.4337 9.58089 17.3343 9.87586 17.225C10.1966 17.1064 10.5169 16.9845 10.8307 16.849C11.2194 16.6816 11.6049 16.5049 11.9857 16.3206C12.3735 16.1326 12.7632 15.945 13.1365 15.7298C13.7016 15.4035 14.2672 15.0739 14.8074 14.7082C15.4255 14.2899 16.0272 13.845 16.6157 13.386C17.5405 12.6648 18.3738 11.8453 19.1443 10.9614C19.7235 10.2971 20.2562 9.59517 20.7121 8.84171C21.0553 8.27391 21.3672 7.68548 21.6584 7.08909C21.8896 6.61506 22.081 6.12041 22.2653 5.62576C22.3914 5.2877 22.4819 4.93605 22.5748 4.58675C22.6676 4.23697 22.7436 3.88298 22.8257 3.53039C22.8341 3.49476 22.8304 3.45631 22.8336 3.38364Z" fill="#3DB2BB"/>
<path d="M0.000959403 29.8106C0.000959403 28.6506 0.000959403 27.4911 0.000959403 26.3311C0.000959403 25.8679 0.148212 25.4431 0.369091 25.0455C0.587625 24.6516 0.894324 24.3319 1.27277 24.0857C1.68874 23.8147 2.14597 23.6398 2.64213 23.6342C3.98569 23.6196 5.32926 23.6262 6.67282 23.6253C6.9345 23.6253 7.19711 23.6126 7.45785 23.6314C8.43704 23.7012 9.19534 24.1499 9.71635 24.9864C10.0043 25.4487 10.129 25.9555 10.1286 26.4985C10.1267 28.7087 10.1286 30.919 10.1276 33.1292C10.1276 34.051 9.77357 34.8101 9.05747 35.3905C8.70481 35.6765 8.30338 35.8725 7.8499 35.9414C7.64778 35.9719 7.44238 35.9963 7.23838 35.9972C5.73866 36.0019 4.23893 35.9972 2.73873 36.001C2.4175 36.0019 2.11783 35.9203 1.82005 35.8134C1.36563 35.6498 0.987646 35.3769 0.675789 35.014C0.363933 34.6507 0.166032 34.231 0.0558274 33.7622C-0.00419913 33.5062 0.00189732 33.253 0.00142836 32.9974C-0.00138538 31.9355 0.000490446 30.873 0.000490446 29.811L0.000959403 29.8106ZM2.25336 29.8129C2.25336 30.9218 2.25242 32.0306 2.25383 33.139C2.2543 33.5118 2.48737 33.7462 2.85926 33.7462C4.32756 33.7476 5.79587 33.7476 7.26417 33.7462C7.63606 33.7462 7.86913 33.5113 7.87101 33.1395C7.87335 32.7372 7.87194 32.3354 7.87194 31.9331C7.87194 30.1177 7.87241 28.3022 7.87101 26.4868C7.87101 26.1281 7.64075 25.8819 7.29982 25.8815C5.80806 25.8791 4.31631 25.88 2.82455 25.8819C2.75984 25.8819 2.69137 25.8932 2.63087 25.9161C2.36497 26.017 2.25149 26.2186 2.25196 26.498C2.25383 27.6027 2.25242 28.7078 2.25289 29.8124L2.25336 29.8129Z" fill="#3DB2BB"/>
<path d="M5.62663 19.6855C5.62054 20.2946 5.13095 20.7892 4.50583 20.8028C3.89946 20.8159 3.37235 20.2875 3.37329 19.685C3.37423 19.0868 3.89571 18.5668 4.50067 18.5743C5.1286 18.5818 5.62101 19.0868 5.62663 19.6855Z" fill="#3DB2BB"/>
<path d="M28.1268 21.646C28.1268 17.843 28.1272 14.0395 28.1249 10.2366C28.1249 10.0181 28.1685 9.82632 28.35 9.68847C28.4658 9.60032 28.5985 9.56985 28.7448 9.57032C29.9397 9.57266 31.1351 9.57172 32.33 9.57172C32.5997 9.57172 32.8689 9.57079 33.1385 9.57219C33.5109 9.57454 33.7439 9.80569 33.7449 10.1789C33.7463 11.2446 33.7458 12.3108 33.7458 13.3766C33.7458 19.9323 33.7458 26.4884 33.7435 33.0441C33.7435 33.1655 33.7266 33.294 33.6858 33.4075C33.6042 33.6339 33.4175 33.7371 33.1854 33.7427C32.8262 33.7511 32.467 33.746 32.1077 33.746C30.9869 33.746 29.8661 33.7455 28.7448 33.746C28.4663 33.746 28.2632 33.6321 28.1633 33.3662C28.1394 33.3024 28.13 33.2298 28.1291 33.1608C28.1253 32.8331 28.1272 32.5049 28.1272 32.1767C28.1272 28.6663 28.1272 25.1564 28.1272 21.646H28.1268Z" fill="#3DB2BB" fill-opacity="0.27"/>
<path d="M20.8086 28.1288C20.8086 29.7881 20.8077 31.4474 20.81 33.1067C20.81 33.3233 20.7505 33.5071 20.5713 33.6365C20.4541 33.7214 20.319 33.7467 20.1732 33.7462C19.0721 33.7434 17.9705 33.7448 16.8694 33.7448C16.5102 33.7448 16.1509 33.7462 15.7917 33.7439C15.4259 33.7415 15.191 33.5085 15.1905 33.1437C15.1896 29.7979 15.1896 26.4516 15.1905 23.1058C15.1905 22.7349 15.4255 22.5047 15.8011 22.5042C17.2614 22.5033 18.7222 22.5089 20.1826 22.5C20.547 22.4977 20.8133 22.7649 20.8119 23.1264C20.8044 24.7937 20.8086 26.4605 20.8086 28.1278V28.1288Z" fill="#3DB2BB" fill-opacity="0.27"/>
<path d="M2.25338 29.8113C2.25338 28.7066 2.25432 27.6015 2.25244 26.4969C2.25244 26.2179 2.36546 26.0158 2.63136 25.915C2.69185 25.892 2.76032 25.8808 2.82504 25.8808C4.31679 25.8789 5.80855 25.878 7.3003 25.8803C7.64123 25.8808 7.87102 26.1269 7.87149 26.4856C7.8729 28.3011 7.87196 30.1165 7.87243 31.932C7.87243 32.3342 7.87384 32.7361 7.87149 33.1383C7.86962 33.5102 7.63654 33.7446 7.26466 33.7451C5.79635 33.7465 4.32805 33.7465 2.85974 33.7451C2.48786 33.7451 2.25479 33.5106 2.25432 33.1379C2.25291 32.029 2.25385 30.9201 2.25385 29.8117L2.25338 29.8113Z" fill="#3DB2BB" fill-opacity="0.27"/>
</g>
<defs>
<clipPath id="clip0_226_2912">
<rect width="36" height="36" fill="white"/>
</clipPath>
</defs>
</svg>
