<svg width="37" height="36" viewBox="0 0 37 36" fill="none" xmlns="http://www.w3.org/2000/svg">
<g clip-path="url(#clip0_296_5600)">
<path d="M33.25 0H19.75V3H31.129L0.25 33.879L2.371 36L33.25 5.121V16.5H36.25V3C36.25 2.20435 35.9339 1.44129 35.3713 0.87868C34.8087 0.316071 34.0457 0 33.25 0V0Z" fill="#374957"/>
<path d="M9.25024 14.9995C10.4369 14.9995 11.597 14.6476 12.5837 13.9883C13.5704 13.329 14.3394 12.3919 14.7935 11.2956C15.2476 10.1992 15.3665 8.9928 15.135 7.82891C14.9034 6.66502 14.332 5.59593 13.4929 4.75681C12.6538 3.9177 11.5847 3.34625 10.4208 3.11474C9.2569 2.88323 8.0505 3.00205 6.95414 3.45618C5.85779 3.9103 4.92071 4.67934 4.26143 5.66603C3.60214 6.65273 3.25024 7.81277 3.25024 8.99945C3.25024 10.5908 3.88239 12.1169 5.0076 13.2421C6.13282 14.3673 7.65894 14.9995 9.25024 14.9995ZM9.25024 5.99945C9.84359 5.99945 10.4236 6.1754 10.917 6.50504C11.4103 6.83469 11.7948 7.30322 12.0219 7.8514C12.2489 8.39958 12.3084 9.00278 12.1926 9.58472C12.0768 10.1667 11.7911 10.7012 11.3716 11.1208C10.952 11.5403 10.4175 11.8261 9.83551 11.9418C9.25357 12.0576 8.65037 11.9982 8.10219 11.7711C7.55401 11.544 7.08548 11.1595 6.75584 10.6662C6.42619 10.1728 6.25024 9.5928 6.25024 8.99945C6.25024 8.2038 6.56631 7.44074 7.12892 6.87813C7.69153 6.31552 8.45459 5.99945 9.25024 5.99945Z" fill="#374957"/>
<path d="M27.2502 20.9995C26.0635 20.9995 24.9035 21.3514 23.9168 22.0107C22.9301 22.67 22.161 23.6071 21.7069 24.7034C21.2528 25.7998 21.134 27.0062 21.3655 28.1701C21.597 29.3339 22.1684 30.403 23.0075 31.2422C23.8467 32.0813 24.9158 32.6527 26.0796 32.8842C27.2435 33.1157 28.4499 32.9969 29.5463 32.5428C30.6426 32.0887 31.5797 31.3196 32.239 30.3329C32.8983 29.3462 33.2502 28.1862 33.2502 26.9995C33.2502 25.4082 32.618 23.8821 31.4928 22.7569C30.3676 21.6317 28.8415 20.9995 27.2502 20.9995ZM27.2502 29.9995C26.6568 29.9995 26.0768 29.8236 25.5835 29.4939C25.0901 29.1643 24.7056 28.6957 24.4785 28.1476C24.2515 27.5994 24.1921 26.9962 24.3078 26.4142C24.4236 25.8323 24.7093 25.2977 25.1289 24.8782C25.5484 24.4586 26.083 24.1729 26.6649 24.0572C27.2469 23.9414 27.8501 24.0008 28.3982 24.2279C28.9464 24.4549 29.415 24.8395 29.7446 25.3328C30.0742 25.8261 30.2502 26.4062 30.2502 26.9995C30.2502 27.7952 29.9341 28.5582 29.3715 29.1208C28.8089 29.6834 28.0458 29.9995 27.2502 29.9995Z" fill="#374957"/>
</g>
<defs>
<clipPath id="clip0_296_5600">
<rect width="36" height="36" fill="white" transform="translate(0.25)"/>
</clipPath>
</defs>
</svg>
