<svg width="36" height="36" viewBox="0 0 36 36" fill="none" xmlns="http://www.w3.org/2000/svg">
<g clip-path="url(#clip0_296_5605)">
<path d="M32.1093 10.842C31.6908 10.2721 31.1442 9.80849 30.5137 9.48854C29.8832 9.16859 29.1863 9.00125 28.4793 9H7.52127C6.81421 9.00125 6.11734 9.16859 5.48682 9.48854C4.8563 9.80849 4.30977 10.2721 3.89127 10.842L0.820767 15.0315C0.174671 15.9103 -0.129305 16.9942 -0.0343405 18.0808C0.0606237 19.1674 0.548028 20.1822 1.33677 20.9355L18.0003 35.8965L34.7193 20.8845C35.4882 20.1287 35.9583 19.1205 36.0429 18.0456C36.1275 16.9707 35.821 15.9014 35.1798 15.0345L32.1093 10.842ZM10.9638 19.5L14.4213 28.65L4.22427 19.5H10.9638ZM21.8298 19.5L18.0003 29.6355L14.1708 19.5H21.8298ZM14.2158 16.5L16.0158 12H19.9848L21.7848 16.5H14.2158ZM25.0368 19.5H31.7733L21.5733 28.65L25.0368 19.5ZM29.6868 12.6135L32.5383 16.5H25.0158L23.2158 12H28.4793C28.7151 11.9999 28.9475 12.0554 29.1579 12.162C29.3682 12.2686 29.5504 12.4233 29.6898 12.6135H29.6868ZM6.30777 12.6135C6.44742 12.4229 6.63013 12.268 6.84101 12.1613C7.05189 12.0547 7.28497 11.9995 7.52127 12H12.7848L10.9848 16.5H3.46227L6.30777 12.6135Z" fill="#374957"/>
<path d="M19.5003 0H16.5002V6H19.5003V0Z" fill="#374957"/>
<path d="M27.2354 0.854451L24.2357 5.56903L26.7677 7.18003L29.7674 2.46545L27.2354 0.854451Z" fill="#374957"/>
<path d="M8.76548 0.8675L6.23474 2.47852L9.23445 7.19075L11.7652 5.57973L8.76548 0.8675Z" fill="#374957"/>
</g>
<defs>
<clipPath id="clip0_296_5605">
<rect width="36" height="36" fill="white"/>
</clipPath>
</defs>
</svg>
