<svg width="32" height="33" viewBox="0 0 32 33" fill="none" xmlns="http://www.w3.org/2000/svg">
<g clip-path="url(#clip0_160_3551)">
<path d="M16 3.58047C20.275 3.58047 20.7813 3.59922 22.4625 3.67422C24.025 3.74297 24.8688 4.00547 25.4313 4.22422C26.175 4.51172 26.7125 4.86172 27.2688 5.41797C27.8313 5.98047 28.175 6.51172 28.4625 7.25547C28.6813 7.81797 28.9438 8.66797 29.0125 10.2242C29.0875 11.9117 29.1063 12.418 29.1063 16.6867C29.1063 20.9617 29.0875 21.468 29.0125 23.1492C28.9438 24.7117 28.6813 25.5555 28.4625 26.118C28.175 26.8617 27.825 27.3992 27.2688 27.9555C26.7063 28.518 26.175 28.8617 25.4313 29.1492C24.8688 29.368 24.0188 29.6305 22.4625 29.6992C20.775 29.7742 20.2688 29.793 16 29.793C11.725 29.793 11.2188 29.7742 9.5375 29.6992C7.975 29.6305 7.13125 29.368 6.56875 29.1492C5.825 28.8617 5.2875 28.5117 4.73125 27.9555C4.16875 27.393 3.825 26.8617 3.5375 26.118C3.31875 25.5555 3.05625 24.7055 2.9875 23.1492C2.9125 21.4617 2.89375 20.9555 2.89375 16.6867C2.89375 12.4117 2.9125 11.9055 2.9875 10.2242C3.05625 8.66172 3.31875 7.81797 3.5375 7.25547C3.825 6.51172 4.175 5.97422 4.73125 5.41797C5.29375 4.85547 5.825 4.51172 6.56875 4.22422C7.13125 4.00547 7.98125 3.74297 9.5375 3.67422C11.2188 3.59922 11.725 3.58047 16 3.58047ZM16 0.699219C11.6563 0.699219 11.1125 0.717969 9.40625 0.792969C7.70625 0.867969 6.5375 1.14297 5.525 1.53672C4.46875 1.94922 3.575 2.49297 2.6875 3.38672C1.79375 4.27422 1.25 5.16797 0.8375 6.21797C0.44375 7.23672 0.16875 8.39922 0.09375 10.0992C0.01875 11.8117 0 12.3555 0 16.6992C0 21.043 0.01875 21.5867 0.09375 23.293C0.16875 24.993 0.44375 26.1617 0.8375 27.1742C1.25 28.2305 1.79375 29.1242 2.6875 30.0117C3.575 30.8992 4.46875 31.4492 5.51875 31.8555C6.5375 32.2492 7.7 32.5242 9.4 32.5992C11.1063 32.6742 11.65 32.693 15.9938 32.693C20.3375 32.693 20.8813 32.6742 22.5875 32.5992C24.2875 32.5242 25.4563 32.2492 26.4688 31.8555C27.5188 31.4492 28.4125 30.8992 29.3 30.0117C30.1875 29.1242 30.7375 28.2305 31.1438 27.1805C31.5375 26.1617 31.8125 24.9992 31.8875 23.2992C31.9625 21.593 31.9813 21.0492 31.9813 16.7055C31.9813 12.3617 31.9625 11.818 31.8875 10.1117C31.8125 8.41172 31.5375 7.24297 31.1438 6.23047C30.75 5.16797 30.2063 4.27422 29.3125 3.38672C28.425 2.49922 27.5313 1.94922 26.4813 1.54297C25.4625 1.14922 24.3 0.874219 22.6 0.799219C20.8875 0.717969 20.3438 0.699219 16 0.699219Z" fill="white"/>
<path d="M16 8.48047C11.4625 8.48047 7.78125 12.1617 7.78125 16.6992C7.78125 21.2367 11.4625 24.918 16 24.918C20.5375 24.918 24.2188 21.2367 24.2188 16.6992C24.2188 12.1617 20.5375 8.48047 16 8.48047ZM16 22.0305C13.0563 22.0305 10.6687 19.643 10.6687 16.6992C10.6687 13.7555 13.0563 11.368 16 11.368C18.9438 11.368 21.3312 13.7555 21.3312 16.6992C21.3312 19.643 18.9438 22.0305 16 22.0305Z" fill="white"/>
<path d="M26.4625 8.15508C26.4625 9.21758 25.6 10.0738 24.5438 10.0738C23.4813 10.0738 22.625 9.21133 22.625 8.15508C22.625 7.09258 23.4875 6.23633 24.5438 6.23633C25.6 6.23633 26.4625 7.09883 26.4625 8.15508Z" fill="white"/>
</g>
<defs>
<clipPath id="clip0_160_3551">
<rect width="32" height="32" fill="white" transform="translate(0 0.699219)"/>
</clipPath>
</defs>
</svg>
