<svg width="33" height="33" viewBox="0 0 33 33" fill="none" xmlns="http://www.w3.org/2000/svg">
<g clip-path="url(#clip0_160_3550)">
<path d="M30.5572 0.699219H2.43633C1.08926 0.699219 0 1.73047 0 3.00547V30.3867C0 31.6617 1.08926 32.6992 2.43633 32.6992H30.5572C31.9043 32.6992 33 31.6617 33 30.393V3.00547C33 1.73047 31.9043 0.699219 30.5572 0.699219ZM9.79043 27.968H4.89199V12.693H9.79043V27.968ZM7.34121 10.6117C5.76856 10.6117 4.49883 9.38047 4.49883 7.86172C4.49883 6.34297 5.76856 5.11172 7.34121 5.11172C8.90742 5.11172 10.1771 6.34297 10.1771 7.86172C10.1771 9.37422 8.90742 10.6117 7.34121 10.6117ZM28.1209 27.968H23.2289V20.543C23.2289 18.7742 23.1967 16.493 20.683 16.493C18.1371 16.493 17.7504 18.4242 17.7504 20.418V27.968H12.8648V12.693H17.557V14.7805H17.6215C18.2725 13.5805 19.8709 12.3117 22.2492 12.3117C27.2057 12.3117 28.1209 15.4742 28.1209 19.5867V27.968Z" fill="white"/>
</g>
<defs>
<clipPath id="clip0_160_3550">
<rect width="33" height="32" fill="white" transform="translate(0 0.699219)"/>
</clipPath>
</defs>
</svg>
