<svg width="22" height="22" viewBox="0 0 22 22" fill="none" xmlns="http://www.w3.org/2000/svg">
<path fill-rule="evenodd" clip-rule="evenodd" d="M11 0.25C5.06294 0.25 0.25 5.06294 0.25 11C0.25 12.7671 0.676973 14.4367 1.43404 15.9092C1.4814 16.0013 1.48243 16.0893 1.46016 16.1523L0.531876 18.7793C-0.0142718 20.3249 1.47455 21.8138 3.02015 21.2676L5.54274 20.3762C5.60823 20.3531 5.7001 20.3554 5.79451 20.4077C7.33751 21.2632 9.11303 21.75 11 21.75C16.9371 21.75 21.75 16.9371 21.75 11C21.75 5.06294 16.9371 0.25 11 0.25Z" fill="#3DB2BB"/>
<circle cx="6.0498" cy="11.0498" r="1.25" fill="white"/>
<circle cx="11.0498" cy="11.0498" r="1.25" fill="white"/>
<circle cx="16.0498" cy="11.0498" r="1.25" fill="white"/>
</svg>
