<svg width="230" height="68" viewBox="0 0 230 68" fill="none" xmlns="http://www.w3.org/2000/svg">
<path d="M220.551 67.6992H8.99078C4.33646 67.6992 0.528381 63.8911 0.528381 59.2368V8.4624C0.528381 3.80808 4.33646 0 8.99078 0H220.551C225.205 0 229.013 3.80808 229.013 8.4624V59.2368C229.013 63.8911 225.205 67.6992 220.551 67.6992Z" fill="black"/>
<path d="M220.551 0H8.99078C4.33646 0 0.528381 3.80808 0.528381 8.4624V59.2368C0.528381 63.8911 4.33646 67.6992 8.99078 67.6992H220.551C225.205 67.6992 229.013 63.8911 229.013 59.2368V8.4624C229.013 3.80808 225.205 0 220.551 0ZM220.551 1.35398C224.47 1.35398 227.659 4.54262 227.659 8.4624V59.2368C227.659 63.1566 224.47 66.3452 220.551 66.3452H8.99078C5.071 66.3452 1.88237 63.1566 1.88237 59.2368V8.4624C1.88237 4.54262 5.071 1.35398 8.99078 1.35398H220.551Z" fill="#A6A6A6"/>
<path d="M80.7817 17.309C80.7817 18.7273 80.362 19.8562 79.5208 20.699C78.5646 21.701 77.3206 22.202 75.7906 22.202C74.3232 22.202 73.0776 21.6942 72.0536 20.677C71.0263 19.6615 70.5151 18.4006 70.5151 16.8977C70.5151 15.3931 71.0263 14.1339 72.0536 13.1167C73.0776 12.1012 74.3232 11.5918 75.7906 11.5918C76.5167 11.5918 77.214 11.734 77.874 12.0183C78.5358 12.3026 79.0655 12.6801 79.4633 13.1523L78.5696 14.0459C77.8977 13.2437 76.9719 12.8408 75.7906 12.8408C74.721 12.8408 73.7969 13.2166 73.0166 13.968C72.2364 14.7212 71.8471 15.6961 71.8471 16.8977C71.8471 18.0977 72.2364 19.0743 73.0166 19.8257C73.7969 20.5789 74.721 20.9529 75.7906 20.9529C76.9246 20.9529 77.869 20.5755 78.6272 19.8189C79.118 19.3264 79.4007 18.6427 79.4768 17.7626H75.7906V16.5423H80.7106C80.758 16.808 80.7817 17.0636 80.7817 17.309Z" fill="white"/>
<path d="M80.7817 17.309C80.7817 18.7273 80.362 19.8562 79.5208 20.699C78.5646 21.701 77.3206 22.202 75.7906 22.202C74.3232 22.202 73.0776 21.6942 72.0536 20.677C71.0263 19.6615 70.5151 18.4006 70.5151 16.8977C70.5151 15.3931 71.0263 14.1339 72.0536 13.1167C73.0776 12.1012 74.3232 11.5918 75.7906 11.5918C76.5167 11.5918 77.214 11.734 77.874 12.0183C78.5358 12.3026 79.0655 12.6801 79.4633 13.1523L78.5696 14.0459C77.8977 13.2437 76.9719 12.8408 75.7906 12.8408C74.721 12.8408 73.7969 13.2166 73.0166 13.968C72.2364 14.7212 71.8471 15.6961 71.8471 16.8977C71.8471 18.0977 72.2364 19.0743 73.0166 19.8257C73.7969 20.5789 74.721 20.9529 75.7906 20.9529C76.9246 20.9529 77.869 20.5755 78.6272 19.8189C79.118 19.3264 79.4007 18.6427 79.4768 17.7626H75.7906V16.5423H80.7106C80.758 16.808 80.7817 17.0636 80.7817 17.309Z" stroke="white" stroke-width="0.00129032" stroke-miterlimit="10"/>
<path d="M88.5807 13.0638H83.9569V16.2829H88.1272V17.5031H83.9569V20.7222H88.5807V21.9713H82.652V11.8164H88.5807V13.0638Z" fill="white"/>
<path d="M88.5807 13.0638H83.9569V16.2829H88.1272V17.5031H83.9569V20.7222H88.5807V21.9713H82.652V11.8164H88.5807V13.0638Z" stroke="white" stroke-width="0.00129032" stroke-miterlimit="10"/>
<path d="M94.0948 21.9713H92.7899V13.0638H89.9533V11.8164H96.9314V13.0638H94.0948V21.9713Z" fill="white"/>
<path d="M94.0948 21.9713H92.7899V13.0638H89.9533V11.8164H96.9314V13.0638H94.0948V21.9713Z" stroke="white" stroke-width="0.00129032" stroke-miterlimit="10"/>
<path d="M101.978 11.8164H103.283V21.9713H101.978V11.8164Z" fill="white"/>
<path d="M101.978 11.8164H103.283V21.9713H101.978V11.8164Z" stroke="white" stroke-width="0.00129032" stroke-miterlimit="10"/>
<path d="M109.066 21.9713H107.761V13.0638H104.924V11.8164H111.902V13.0638H109.066V21.9713Z" fill="white"/>
<path d="M109.066 21.9713H107.761V13.0638H104.924V11.8164H111.902V13.0638H109.066V21.9713Z" stroke="white" stroke-width="0.00129032" stroke-miterlimit="10"/>
<path d="M118.623 19.8122C119.375 20.5738 120.294 20.9529 121.382 20.9529C122.47 20.9529 123.389 20.5738 124.141 19.8122C124.892 19.0506 125.27 18.0791 125.27 16.8977C125.27 15.7164 124.892 14.7432 124.141 13.9833C123.389 13.2217 122.47 12.8408 121.382 12.8408C120.294 12.8408 119.375 13.2217 118.623 13.9833C117.874 14.7432 117.496 15.7164 117.496 16.8977C117.496 18.0791 117.874 19.0506 118.623 19.8122ZM125.106 20.6618C124.107 21.6891 122.866 22.202 121.382 22.202C119.898 22.202 118.657 21.6891 117.66 20.6618C116.662 19.6362 116.164 18.382 116.164 16.8977C116.164 15.4134 116.662 14.1576 117.66 13.132C118.657 12.1063 119.898 11.5918 121.382 11.5918C122.858 11.5918 124.095 12.108 125.099 13.1387C126.101 14.1694 126.602 15.4219 126.602 16.8977C126.602 18.382 126.102 19.6362 125.106 20.6618Z" fill="white"/>
<path d="M118.623 19.8122C119.375 20.5738 120.294 20.9529 121.382 20.9529C122.47 20.9529 123.389 20.5738 124.141 19.8122C124.892 19.0506 125.27 18.0791 125.27 16.8977C125.27 15.7164 124.892 14.7432 124.141 13.9833C123.389 13.2217 122.47 12.8408 121.382 12.8408C120.294 12.8408 119.375 13.2217 118.623 13.9833C117.874 14.7432 117.496 15.7164 117.496 16.8977C117.496 18.0791 117.874 19.0506 118.623 19.8122ZM125.106 20.6618C124.107 21.6891 122.866 22.202 121.382 22.202C119.898 22.202 118.657 21.6891 117.66 20.6618C116.662 19.6362 116.164 18.382 116.164 16.8977C116.164 15.4134 116.662 14.1576 117.66 13.132C118.657 12.1063 119.898 11.5918 121.382 11.5918C122.858 11.5918 124.095 12.108 125.099 13.1387C126.101 14.1694 126.602 15.4219 126.602 16.8977C126.602 18.382 126.102 19.6362 125.106 20.6618Z" stroke="white" stroke-width="0.00129032" stroke-miterlimit="10"/>
<path d="M128.445 21.9713V11.8164H130.033L134.968 19.7152H135.026L134.968 17.7587V11.8164H136.275V21.9713H134.912L129.748 13.6883H129.693L129.748 15.6465V21.9713H128.445Z" fill="white"/>
<path d="M128.445 21.9713V11.8164H130.033L134.968 19.7152H135.026L134.968 17.7587V11.8164H136.275V21.9713H134.912L129.748 13.6883H129.693L129.748 15.6465V21.9713H128.445Z" stroke="white" stroke-width="0.00129032" stroke-miterlimit="10"/>
<path d="M181.511 50.743H184.669V29.5853H181.511V50.743ZM209.957 37.2065L206.336 46.3798H206.228L202.471 37.2065H199.069L204.703 50.0271L201.493 57.1592H204.784L213.468 37.2065H209.957ZM192.047 48.3397C191.011 48.3397 189.569 47.8235 189.569 46.5423C189.569 44.9107 191.365 44.2845 192.917 44.2845C194.305 44.2845 194.96 44.5841 195.802 44.992C195.557 46.9519 193.87 48.3397 192.047 48.3397ZM192.428 36.7445C190.141 36.7445 187.772 37.7515 186.793 39.9839L189.596 41.1534C190.195 39.9839 191.311 39.6014 192.482 39.6014C194.115 39.6014 195.775 40.5814 195.802 42.3246V42.5412C195.23 42.2146 194.007 41.7255 192.509 41.7255C189.488 41.7255 186.411 43.3858 186.411 46.4881C186.411 49.3196 188.889 51.1441 191.664 51.1441C193.788 51.1441 194.96 50.1913 195.694 49.0742H195.802V50.7075H198.851V42.5954C198.851 38.8398 196.048 36.7445 192.428 36.7445ZM172.91 39.7825H168.418V32.5302H172.91C175.271 32.5302 176.611 34.485 176.611 36.1555C176.611 37.7955 175.271 39.7825 172.91 39.7825ZM172.829 29.5853H165.262V50.743H168.418V42.7274H172.829C176.329 42.7274 179.77 40.1921 179.77 36.1555C179.77 32.119 176.329 29.5853 172.829 29.5853ZM131.564 48.3431C129.383 48.3431 127.557 46.5169 127.557 44.0086C127.557 41.4733 129.383 39.6183 131.564 39.6183C133.719 39.6183 135.408 41.4733 135.408 44.0086C135.408 46.5169 133.719 48.3431 131.564 48.3431ZM135.191 38.3913H135.081C134.372 37.5467 133.01 36.7834 131.292 36.7834C127.692 36.7834 124.393 39.945 124.393 44.0086C124.393 48.0435 127.692 51.1797 131.292 51.1797C133.01 51.1797 134.372 50.4164 135.081 49.543H135.191V50.5805C135.191 53.3342 133.719 54.8067 131.346 54.8067C129.41 54.8067 128.21 53.4154 127.719 52.2425L124.965 53.3884C125.756 55.2975 127.856 57.6416 131.346 57.6416C135.054 57.6416 138.19 55.4599 138.19 50.1439V37.2184H135.191V38.3913ZM140.372 50.743H143.535V29.5836H140.372V50.743ZM148.196 43.7632C148.115 40.9825 150.351 39.5642 151.959 39.5642C153.215 39.5642 154.277 40.1904 154.631 41.0908L148.196 43.7632ZM158.013 41.3633C157.414 39.7554 155.586 36.7834 151.85 36.7834C148.142 36.7834 145.062 39.6996 145.062 43.9815C145.062 48.0164 148.115 51.1797 152.204 51.1797C155.504 51.1797 157.414 49.1622 158.204 47.9893L155.75 46.3527C154.932 47.5527 153.814 48.3431 152.204 48.3431C150.596 48.3431 149.45 47.6068 148.714 46.1632L158.339 42.1808L158.013 41.3633ZM81.3298 38.9921V42.0454H88.6363C88.4179 43.7632 87.8459 45.0173 86.9742 45.889C85.9097 46.9535 84.246 48.1264 81.3298 48.1264C76.8295 48.1264 73.3125 44.4994 73.3125 40.0008C73.3125 35.5005 76.8295 31.8752 81.3298 31.8752C83.7568 31.8752 85.5289 32.8298 86.8371 34.0568L88.9917 31.9023C87.1638 30.1574 84.7385 28.8203 81.3298 28.8203C75.1675 28.8203 69.9868 33.8385 69.9868 40.0008C69.9868 46.1632 75.1675 51.1797 81.3298 51.1797C84.6555 51.1797 87.1638 50.088 89.1271 48.0435C91.1462 46.0261 91.7724 43.1912 91.7724 40.8995C91.7724 40.1904 91.7183 39.5371 91.6082 38.9921H81.3298ZM100.081 48.3431C97.8992 48.3431 96.0172 46.544 96.0172 43.9815C96.0172 41.3904 97.8992 39.6183 100.081 39.6183C102.261 39.6183 104.143 41.3904 104.143 43.9815C104.143 46.544 102.261 48.3431 100.081 48.3431ZM100.081 36.7834C96.0984 36.7834 92.8539 39.8096 92.8539 43.9815C92.8539 48.1264 96.0984 51.1797 100.081 51.1797C104.062 51.1797 107.306 48.1264 107.306 43.9815C107.306 39.8096 104.062 36.7834 100.081 36.7834ZM115.843 48.3431C113.661 48.3431 111.779 46.544 111.779 43.9815C111.779 41.3904 113.661 39.6183 115.843 39.6183C118.024 39.6183 119.905 41.3904 119.905 43.9815C119.905 46.544 118.024 48.3431 115.843 48.3431ZM115.843 36.7834C111.862 36.7834 108.618 39.8096 108.618 43.9815C108.618 48.1264 111.862 51.1797 115.843 51.1797C119.824 51.1797 123.068 48.1264 123.068 43.9815C123.068 39.8096 119.824 36.7834 115.843 36.7834Z" fill="white"/>
<path d="M21.1916 22.1472L31.6257 32.6169C32.3332 33.3277 32.3332 34.4786 31.6257 35.1878L21.178 45.8419L21.1916 22.1472ZM24.7982 17.0224L36.4882 23.7584L40.6365 26.1482L36.7421 30.0562C36.0346 30.7653 34.8871 30.7653 34.1797 30.0562L21.6384 17.4777C22.3865 16.7059 23.7371 16.3945 24.7982 17.0224ZM23.4883 51.0175C22.7859 51.0175 22.1614 50.7044 21.7128 50.2525L34.1797 37.7485C34.8871 37.0393 36.0346 37.0393 36.7421 37.7485L40.5806 41.6006L24.7458 50.6807C24.3683 50.9008 23.9334 51.0175 23.4883 51.0175ZM50.1059 36.0239L43.8302 39.7355L39.296 35.1878C38.5886 34.4786 38.5886 33.3277 39.296 32.6169L43.881 28.0184L50.1262 31.6962L50.1668 31.7182C50.9572 32.1481 51.4463 32.9655 51.4463 33.8541C51.4463 34.7494 50.9504 35.5703 50.1059 36.0239ZM52.0759 28.5634L26.6177 13.893C25.6716 13.3311 24.5884 13.0332 23.4883 13.0332C20.655 13.0332 18.1739 14.9643 17.6001 17.5758C17.5375 17.8263 17.3919 18.4762 17.4055 19.094L17.4072 48.643C17.4275 49.2421 17.59 50.0528 17.6154 50.151C18.3228 52.7946 20.738 54.6394 23.4883 54.6394C24.5731 54.6394 25.6377 54.3517 26.5533 53.8169L52.0218 39.2125C53.9986 38.1513 55.2273 36.1051 55.2273 33.871C55.2273 31.6606 54.0206 29.628 52.0759 28.5634Z" fill="white"/>
</svg>
