<svg width="33" height="34" viewBox="0 0 33 34" fill="none" xmlns="http://www.w3.org/2000/svg">
<path opacity="0.3" d="M16.9999 1.5C15.6638 1.5 14.3652 1.66917 13.1241 1.98813C12.1112 2.24845 11.5882 3.13691 11.4199 3.87546C11.2206 4.7503 10.6801 5.53839 9.85594 6.02165C9.0982 6.46597 8.2415 6.57035 7.45138 6.38112C6.72521 6.2072 5.7113 6.29003 5.03276 7.0943C3.77121 8.58962 2.77605 10.3251 2.12309 12.2247C1.73326 13.3588 2.33725 14.3801 2.97496 14.9137C3.71107 15.5297 4.17736 16.4591 4.17736 17.5C4.17736 18.5409 3.71107 19.4703 2.97496 20.0863C2.33725 20.6199 1.73326 21.6412 2.12308 22.7753C2.77597 24.6747 3.77098 26.41 5.03234 27.9052C5.71092 28.7096 6.72496 28.7924 7.45118 28.6184C8.24135 28.4291 9.09813 28.5335 9.85593 28.9778C10.6802 29.4611 11.2207 30.2494 11.42 31.1243C11.5882 31.863 12.1112 32.7516 13.1242 33.0119C14.3652 33.3308 15.6639 33.5 16.9999 33.5C18.3359 33.5 19.6346 33.3308 20.8757 33.0119C21.8887 32.7515 22.4117 31.8629 22.5799 31.1243C22.7792 30.2494 23.3197 29.4611 24.144 28.9778C24.9017 28.5335 25.7585 28.4291 26.5486 28.6184C27.2749 28.7923 28.2889 28.7095 28.9674 27.9052C30.2288 26.41 31.2238 24.6747 31.8767 22.7753C32.2665 21.6411 31.6625 20.6199 31.0248 20.0863C30.2887 19.4703 29.8224 18.5409 29.8224 17.5C29.8224 16.4591 30.2887 15.5297 31.0248 14.9137C31.6625 14.3801 32.2665 13.3589 31.8767 12.2247C31.2237 10.3251 30.2286 8.58966 28.967 7.09435C28.2885 6.2901 27.2746 6.20725 26.5485 6.38114C25.7584 6.57034 24.9017 6.46596 24.144 6.02165C23.3199 5.53839 22.7794 4.75032 22.5801 3.87549C22.4118 3.13696 21.8888 2.24853 20.8759 1.98819C19.6348 1.66919 18.336 1.5 16.9999 1.5Z" fill="white"/>
<path d="M12.9999 18C12.9999 20.4853 15.0146 22.5 17.4999 22.5C19.9852 22.5 21.9999 20.4853 21.9999 18C21.9999 15.5147 19.9852 13.5 17.4999 13.5C15.0146 13.5 12.9999 15.5147 12.9999 18Z" fill="white"/>
</svg>
