<svg width="29" height="34" viewBox="0 0 29 34" fill="none" xmlns="http://www.w3.org/2000/svg">
<g clip-path="url(#clip0_226_2940)">
<path d="M28.6662 8.57671V7.27312C28.6662 7.22074 28.6633 7.17171 28.6608 7.12813C28.6596 7.10844 28.6587 7.08832 28.6579 7.06863C28.6392 6.59136 28.3283 6.21424 27.826 6.05961C27.6866 6.01687 27.5462 5.97749 27.4105 5.93935C27.3038 5.9096 27.1938 5.87859 27.0875 5.84675C26.7438 5.74451 26.4325 5.64897 26.1353 5.55511C25.8314 5.45915 25.5579 5.3699 25.2993 5.2819C25.0112 5.18385 24.7032 5.07574 24.3009 4.93201C23.973 4.81511 23.6774 4.70867 23.3773 4.59428C23.1465 4.50628 22.912 4.412 22.6849 4.32066L22.5006 4.24649C22.4159 4.21255 22.3308 4.17861 22.2461 4.14508C22.0045 4.04871 21.7542 3.9494 21.5135 3.84632C21.2092 3.716 20.9012 3.57521 20.6031 3.43902L20.4761 3.3812C20.3856 3.33971 20.2951 3.29865 20.2046 3.25759C19.8734 3.10716 19.5305 2.95128 19.2 2.79079C18.6758 2.53644 18.1681 2.27706 17.7405 2.05666C17.3752 1.86851 17.0012 1.66864 16.6289 1.4629C16.4396 1.35856 16.2478 1.24961 16.0618 1.14444C15.7297 0.956293 15.386 0.761865 15.0398 0.580007C14.8103 0.459747 14.5255 0.49285 14.3354 0.563246C14.1639 0.626938 14.0112 0.717029 13.8758 0.796644C13.8339 0.821366 13.792 0.846089 13.7497 0.869973C13.5641 0.973892 13.379 1.07865 13.1934 1.18341C12.88 1.36065 12.5562 1.54335 12.237 1.71976C11.836 1.941 11.4313 2.15261 11.1233 2.31268C10.8584 2.45012 10.5832 2.58463 10.3167 2.71453L10.291 2.7271C9.96634 2.88549 9.69859 3.01371 9.4487 3.1302C9.15106 3.26932 8.84969 3.40634 8.55289 3.53791C8.30092 3.64979 8.05642 3.75371 7.76252 3.87816C7.49768 3.99046 7.21499 4.10947 6.92898 4.22554C6.70773 4.31521 6.479 4.40278 6.25775 4.48743L6.22412 4.50042C5.99789 4.58716 5.73471 4.68772 5.47568 4.78284C5.22994 4.87293 4.97008 4.96596 4.70399 5.05856C4.55829 5.10926 4.4076 5.15913 4.2619 5.20731C4.20171 5.22701 4.14152 5.24712 4.08174 5.26724C3.9983 5.29531 3.91445 5.32339 3.83101 5.35146C3.63218 5.4185 3.42628 5.48764 3.22412 5.55175C3.07136 5.60036 2.91196 5.64604 2.75796 5.69087C2.68158 5.71308 2.60478 5.73529 2.5284 5.7575C2.43292 5.78557 2.33745 5.81365 2.24197 5.8413C2.00287 5.91128 1.75505 5.98335 1.51138 6.05961C1.36692 6.10487 0.926905 6.24273 0.762937 6.7133C0.703576 6.88384 0.671612 7.07156 0.671197 7.25593C0.667461 8.2859 0.667877 9.29785 0.667877 10.4699V11.5287V11.5375C0.676179 11.9478 0.673273 12.3869 0.669952 12.8525C0.66331 13.7948 0.655838 14.8629 0.748823 15.9176C0.791579 16.4024 0.838902 16.837 0.893281 17.2455C0.934377 17.556 0.991247 17.864 1.04604 18.1619L1.07261 18.3061C1.12367 18.5856 1.17057 18.8106 1.21997 19.0151C1.28971 19.3021 1.37066 19.5896 1.44123 19.8359L1.47527 19.9558C1.55206 20.2261 1.63135 20.506 1.72267 20.7813C1.8306 21.1064 1.95015 21.4333 2.07842 21.7526L2.12035 21.8573C2.27394 22.2412 2.43251 22.638 2.61682 23.0222C2.80445 23.4144 3.01242 23.7987 3.21375 24.1704C3.25567 24.2475 3.29718 24.3246 3.33869 24.4021C3.71894 25.1086 4.16352 25.753 4.58734 26.3443C5.18635 27.1802 5.90158 28.007 6.77415 28.8727C7.5695 29.6617 8.4296 30.3879 9.32956 31.0311C9.98461 31.4987 10.5836 31.8838 11.1619 32.2077C11.4998 32.3971 11.7845 32.5454 12.0581 32.6745C12.381 32.827 12.7281 32.9791 13.1822 33.1673C13.3698 33.2452 13.5645 33.3072 13.7604 33.3516C13.7986 33.3604 13.8368 33.3692 13.875 33.378C14.1145 33.4338 14.3619 33.4916 14.628 33.4996C14.645 33.5 14.6616 33.5004 14.6787 33.5004C14.9377 33.5004 15.1868 33.443 15.4084 33.3919L15.4416 33.3843C15.6571 33.3349 15.9389 33.2632 16.2108 33.1484C16.6492 32.9636 17.1166 32.76 17.5637 32.5266C18.1407 32.2253 18.6409 31.9395 19.0929 31.6533C19.8115 31.1983 20.5247 30.6724 21.2727 30.0468C22.0822 29.3696 22.8758 28.5923 23.633 27.7363C24.3802 26.8915 25.0635 25.9617 25.6646 24.9732C25.9335 24.5303 26.1801 24.0765 26.4093 23.6499C26.5587 23.3717 26.6878 23.0855 26.8127 22.8085C26.9501 22.5039 27.0888 22.1812 27.2254 21.8502C27.3213 21.6172 27.4147 21.3713 27.5031 21.1186C27.5882 20.8747 27.6604 20.6354 27.7202 20.4335C27.8032 20.1523 27.9111 19.7815 28.0132 19.4023C28.073 19.1797 28.1216 18.9577 28.1685 18.7427L28.1926 18.6321C28.242 18.4062 28.293 18.1728 28.3333 17.9365C28.3947 17.5745 28.4416 17.2522 28.4761 16.9518L28.496 16.7762C28.55 16.3073 28.6056 15.8229 28.6367 15.3394C28.6658 14.8893 28.6662 14.4368 28.6666 13.9993V13.9C28.6687 12.1254 28.6683 10.3211 28.6679 8.57629L28.6662 8.57671ZM26.4935 12.472C26.4964 13.0762 26.4998 13.7014 26.4861 14.3128C26.4711 14.9962 26.4188 15.688 26.3707 16.283C26.3478 16.5675 26.2993 16.8512 26.2482 17.1517L26.2229 17.3017C26.1702 17.6155 26.0983 18.0287 26.0095 18.4427C25.9647 18.6526 25.9057 18.8605 25.8435 19.0804C25.8298 19.1282 25.8165 19.1756 25.8032 19.2233C25.7447 19.432 25.6745 19.6771 25.5969 19.9147C25.5147 20.1661 25.4213 20.4347 25.3113 20.7364L25.3047 20.7544C25.2237 20.9757 25.1477 21.1852 25.0572 21.3868L25.0473 21.409C24.8675 21.8108 24.682 22.2261 24.4811 22.6191C24.2785 23.0155 24.0622 23.4035 23.8381 23.7719C23.0971 24.9904 22.2465 26.0811 21.3105 27.0139C20.8634 27.4593 20.3906 27.9035 19.9057 28.3346C19.5869 28.6179 19.249 28.8848 18.9016 29.1279C18.3893 29.4861 17.863 29.8306 17.3379 30.1511C16.9751 30.3728 16.5712 30.5903 16.1374 30.7981C15.8588 30.9318 15.5653 31.0378 15.2553 31.1497L15.1382 31.192C14.9966 31.2431 14.8393 31.2745 14.7177 31.2959C14.599 31.3168 14.4591 31.2934 14.264 31.2205C13.8721 31.0738 13.5454 30.9485 13.2241 30.8119C13.0352 30.7319 12.8377 30.6326 12.6197 30.509L12.506 30.4444C12.1316 30.2324 11.7447 30.0128 11.3806 29.7807C10.7422 29.373 10.1116 28.9083 9.50598 28.3987C8.49519 27.5485 7.58485 26.6212 6.8003 25.6436C6.29884 25.0185 5.85052 24.3748 5.46738 23.7304C5.16891 23.2284 4.90324 22.7134 4.70565 22.3204C4.52508 21.9625 4.35488 21.5854 4.1851 21.1672C4.04687 20.8274 3.92774 20.4821 3.79199 20.0681C3.65833 19.6608 3.54666 19.2895 3.45036 18.9334C3.36692 18.6241 3.30133 18.3015 3.2482 18.0266C3.16518 17.5971 3.09129 17.1588 3.02612 16.772C2.99747 16.6019 2.97091 16.436 2.96053 16.2763C2.95306 16.1581 2.94517 16.0396 2.93728 15.9214C2.90117 15.37 2.86339 14.8001 2.84513 14.2424C2.8306 13.7999 2.83268 13.3456 2.83434 12.9065C2.83517 12.7422 2.83558 12.578 2.83558 12.4142C2.83558 11.9323 2.83558 11.4508 2.83558 10.9689C2.83558 9.9838 2.83558 8.96682 2.83309 7.96283L2.84222 7.96032C3.01947 7.90836 3.20295 7.85472 3.38394 7.79899C3.68739 7.70555 4.00079 7.60708 4.31545 7.50567C4.60104 7.41391 4.88 7.3234 5.15812 7.22744C5.47153 7.11891 5.78743 7.00452 6.09295 6.89348L6.22578 6.84529C6.50391 6.7443 6.79158 6.63997 7.07427 6.53186C7.36277 6.42123 7.64463 6.306 7.91736 6.19454C8.21873 6.07135 8.49187 5.95737 8.75297 5.84633C9.00412 5.73906 9.26314 5.62592 9.545 5.50021C9.8252 5.37534 10.0768 5.26053 10.3134 5.14991C10.6301 5.00157 10.9099 4.86832 11.1685 4.74136L11.2304 4.71119C11.5292 4.56495 11.8381 4.41368 12.1403 4.25529C12.667 3.97957 13.1552 3.71851 13.633 3.45704C13.9194 3.30033 14.2059 3.13607 14.4832 2.97768C14.5454 2.94206 14.6073 2.90644 14.6695 2.87124C14.826 2.95756 14.9825 3.0443 15.1386 3.13146C15.626 3.40215 16.1295 3.68164 16.6322 3.94772C17.1577 4.22637 17.7218 4.51131 18.4612 4.87209C18.8464 5.06024 19.2416 5.23581 19.6235 5.40551L19.7712 5.4713C20.1992 5.66196 20.6845 5.87818 21.1643 6.07721C21.5118 6.22136 21.8663 6.35838 22.2092 6.49079C22.3125 6.5306 22.4155 6.57041 22.5189 6.61063L22.7181 6.68857C23.0083 6.80213 23.3084 6.91946 23.6093 7.02757C23.8509 7.11472 24.0967 7.19476 24.3337 7.2727C24.4317 7.30496 24.5301 7.33681 24.628 7.36949C24.7268 7.40259 24.8256 7.4357 24.9244 7.4688C25.1751 7.55302 25.435 7.64018 25.6932 7.72189C25.9626 7.80737 26.2366 7.88741 26.4993 7.96283V11.2564H26.4915V11.6754C26.4915 11.9415 26.4927 12.2076 26.4939 12.4737L26.4935 12.472Z" fill="#3DB2BB"/>
<path d="M26.9058 11.673C26.9058 12.5558 26.9208 13.4387 26.9009 14.3212C26.8859 14.9866 26.8378 15.652 26.7842 16.3158C26.7556 16.669 26.6904 17.0202 26.6314 17.3705C26.5663 17.7581 26.497 18.1452 26.4148 18.5299C26.3566 18.8014 26.2769 19.0688 26.2018 19.3361C26.1354 19.5733 26.0669 19.8105 25.9905 20.0447C25.8992 20.325 25.8012 20.6033 25.7004 20.8802C25.6173 21.1082 25.5343 21.337 25.4351 21.5582C25.2471 21.9789 25.059 22.4005 24.8498 22.8103C24.6451 23.2113 24.4255 23.606 24.1918 23.9902C23.4571 25.1987 22.6024 26.3146 21.602 27.311C21.1412 27.7703 20.6659 28.2161 20.1798 28.6481C19.849 28.9419 19.4999 29.218 19.1379 29.4711C18.6202 29.8331 18.0914 30.1797 17.5526 30.5082C17.1528 30.7521 16.7373 30.9729 16.3151 31.1753C15.9806 31.3354 15.6277 31.4581 15.2786 31.5851C15.1209 31.6425 14.9544 31.6781 14.7888 31.7074C14.558 31.7481 14.3342 31.6924 14.1196 31.6123C13.7651 31.4799 13.411 31.345 13.0627 31.1971C12.8411 31.1028 12.6256 30.9922 12.416 30.8732C11.993 30.6335 11.5683 30.3955 11.1586 30.134C10.4886 29.7062 9.84979 29.2323 9.24 28.7198C8.23045 27.8708 7.30475 26.9373 6.47744 25.9064C5.97848 25.2842 5.51895 24.6313 5.11131 23.9454C4.8336 23.4782 4.57997 22.9955 4.33547 22.5098C4.14078 22.1235 3.96395 21.7271 3.80081 21.3261C3.65054 20.9569 3.52227 20.5785 3.39774 20.1997C3.27196 19.8172 3.15448 19.4317 3.04988 19.0428C2.96685 18.7344 2.90168 18.4205 2.84108 18.1067C2.75971 17.6864 2.68832 17.2644 2.61692 16.8425C2.58661 16.664 2.55797 16.4842 2.54635 16.3036C2.50235 15.6214 2.45295 14.9393 2.43012 14.2563C2.40978 13.6428 2.42098 13.0281 2.42057 12.4138C2.41974 10.8747 2.4214 9.33605 2.41766 7.79697C2.41766 7.68886 2.45585 7.63648 2.54967 7.60882C2.78753 7.53885 3.0258 7.46971 3.26324 7.3968C3.57291 7.30168 3.88176 7.20404 4.18977 7.10515C4.46831 7.01548 4.74726 6.92539 5.02372 6.82943C5.35249 6.71588 5.67918 6.59687 6.00629 6.47829C6.31389 6.36683 6.62148 6.25579 6.92742 6.13846C7.2072 6.03119 7.4845 5.91805 7.7622 5.8045C8.0395 5.69094 8.31638 5.57613 8.59201 5.45838C8.85477 5.34608 9.11671 5.23169 9.37781 5.11478C9.63269 5.00122 9.88674 4.88557 10.1395 4.76741C10.4235 4.63457 10.7066 4.50007 10.988 4.36221C11.3097 4.20465 11.6323 4.04752 11.9498 3.88116C12.4476 3.62053 12.9432 3.35612 13.4359 3.08627C13.817 2.8776 14.1927 2.65928 14.5704 2.44432C14.6456 2.40158 14.7136 2.41499 14.7855 2.4548C15.4646 2.82941 16.1404 3.21114 16.8257 3.57444C17.4251 3.89206 18.0329 4.19502 18.6427 4.49252C19.0698 4.70078 19.5053 4.89228 19.9399 5.08587C20.3994 5.29035 20.8589 5.49484 21.323 5.68759C21.7684 5.87238 22.2192 6.04292 22.6688 6.21766C23.0283 6.35761 23.3869 6.50008 23.7498 6.63082C24.0835 6.75108 24.4222 6.85709 24.7589 6.96939C25.1117 7.08672 25.4637 7.20782 25.8187 7.32011C26.1242 7.41691 26.4322 7.50574 26.7402 7.59416C26.8984 7.63941 26.9158 7.65617 26.9158 7.82127C26.9158 9.10559 26.9158 10.3895 26.9158 11.6738C26.9133 11.6738 26.9104 11.6738 26.9079 11.6738L26.9058 11.673Z" fill="#3DB2BB" fill-opacity="0.3"/>
<path d="M21.8901 12.2743C21.7266 11.9365 21.421 11.6935 21.0512 11.6067C20.6971 11.5238 20.3347 11.6013 20.057 11.8192C19.8561 11.9767 19.683 12.1544 19.5153 12.3262C19.4754 12.3669 19.4356 12.4079 19.3957 12.4481C17.8469 14.009 16.299 15.5712 14.751 17.1329L14.1367 17.753C13.9648 17.9265 13.7934 18.1 13.622 18.2739C13.3364 18.563 13.0408 18.8622 12.749 19.1547C12.6157 19.2883 12.5344 19.2804 12.4995 19.277C12.4538 19.2724 12.3804 19.2536 12.2691 19.1413L12.13 19.0009C11.2633 18.1255 10.3667 17.2204 9.48247 16.3325C9.04661 15.8951 8.49244 15.8016 7.9611 16.0773C7.51485 16.3086 7.24212 16.8664 7.32639 17.3742C7.37288 17.6541 7.50323 17.9043 7.71369 18.1167L9.48579 19.906C10.167 20.5932 10.871 21.3034 11.5622 22.0036C11.8461 22.2915 12.157 22.4348 12.5119 22.4423H12.524H12.536C12.8843 22.4294 13.1915 22.284 13.4754 21.9969C15.2068 20.2466 16.969 18.4683 18.6726 16.7486L19.9848 15.4241C20.1388 15.2686 20.2928 15.1127 20.4468 14.9573C20.8274 14.5722 21.221 14.1741 21.6099 13.7857C22.0304 13.3658 22.1375 12.7867 21.8901 12.2751V12.2743Z" fill="#3DB2BB"/>
</g>
<defs>
<clipPath id="clip0_226_2940">
<rect width="28" height="33" fill="white" transform="translate(0.666748 0.5)"/>
</clipPath>
</defs>
</svg>
