<svg width="37" height="36" viewBox="0 0 37 36" fill="none" xmlns="http://www.w3.org/2000/svg">
<g clip-path="url(#clip0_296_5612)">
<path d="M13.461 16.5C11.8293 16.5 10.2343 16.0162 8.87755 15.1096C7.52084 14.2031 6.46342 12.9146 5.83899 11.4071C5.21457 9.89965 5.05119 8.24085 5.36952 6.64051C5.68785 5.04017 6.47359 3.57016 7.62737 2.41637C8.78115 1.26259 10.2512 0.476853 11.8515 0.158525C13.4518 -0.159803 15.1106 0.00357462 16.6181 0.627998C18.1256 1.25242 19.4141 2.30984 20.3206 3.66655C21.2271 5.02326 21.711 6.61831 21.711 8.25C21.7086 10.4373 20.8387 12.5343 19.292 14.081C17.7453 15.6277 15.6483 16.4976 13.461 16.5ZM13.461 3C12.4226 3 11.4076 3.30791 10.5443 3.88479C9.6809 4.46167 9.00799 5.2816 8.61063 6.24092C8.21327 7.20023 8.1093 8.25583 8.31188 9.27423C8.51445 10.2926 9.01446 11.2281 9.74869 11.9623C10.4829 12.6965 11.4184 13.1966 12.4368 13.3991C13.4552 13.6017 14.5108 13.4977 15.4701 13.1004C16.4294 12.703 17.2493 12.0301 17.8262 11.1667C18.4031 10.3034 18.711 9.28836 18.711 8.25C18.711 6.85762 18.1579 5.52226 17.1733 4.53769C16.1887 3.55313 14.8534 3 13.461 3ZM26.25 36C24.1733 36 22.1432 35.3842 20.4165 34.2304C18.6898 33.0767 17.344 31.4368 16.5493 29.5182C15.7545 27.5996 15.5466 25.4884 15.9518 23.4516C16.3569 21.4148 17.3569 19.5438 18.8254 18.0754C20.2938 16.6069 22.1648 15.6069 24.2016 15.2018C26.2384 14.7966 28.3496 15.0046 30.2682 15.7993C32.1868 16.594 33.8267 17.9398 34.9804 19.6665C36.1342 21.3932 36.75 23.4233 36.75 25.5C36.7468 28.2838 35.6396 30.9527 33.6711 32.9211C31.7027 34.8896 29.0338 35.9968 26.25 36ZM26.25 18C24.7666 18 23.3166 18.4399 22.0832 19.264C20.8499 20.0881 19.8886 21.2594 19.3209 22.6299C18.7532 24.0003 18.6047 25.5083 18.8941 26.9632C19.1835 28.418 19.8978 29.7544 20.9467 30.8033C21.9956 31.8522 23.332 32.5665 24.7868 32.8559C26.2417 33.1453 27.7497 32.9968 29.1201 32.4291C30.4906 31.8614 31.6619 30.9002 32.486 29.6668C33.3101 28.4334 33.75 26.9834 33.75 25.5C33.7476 23.5116 32.9567 21.6053 31.5507 20.1993C30.1447 18.7933 28.2384 18.0024 26.25 18ZM30.3105 27.4395L27.75 24.879V21H24.75V26.121L28.1895 29.5605L30.3105 27.4395ZM14.1705 19.5H8.25C6.26161 19.5024 4.35534 20.2933 2.94933 21.6993C1.54332 23.1053 0.752382 25.0116 0.75 27L0.75 36H3.75V27C3.75 25.8065 4.22411 24.6619 5.06802 23.818C5.91193 22.9741 7.05653 22.5 8.25 22.5H13.0965C13.3328 21.4605 13.6934 20.4533 14.1705 19.5Z" fill="#374957"/>
</g>
<defs>
<clipPath id="clip0_296_5612">
<rect width="36" height="36" fill="white" transform="translate(0.75)"/>
</clipPath>
</defs>
</svg>
