<svg width="37" height="36" viewBox="0 0 37 36" fill="none" xmlns="http://www.w3.org/2000/svg">
<g clip-path="url(#clip0_226_2927)">
<path d="M13.5323 23.1426C14.7625 23.7434 15.7875 24.552 16.6418 25.5784C17.1584 26.1991 17.5976 26.8722 17.9191 27.6117C18.1342 28.1079 18.3258 28.6197 18.4656 29.1415C18.7085 30.0501 18.8236 30.9812 18.72 31.9228C18.6697 32.3781 18.4797 32.7905 18.2216 33.1689C17.8133 33.7682 17.2637 34.2073 16.6397 34.5601C16.0853 34.873 15.4959 35.1012 14.8866 35.2834C14.1856 35.4927 13.4732 35.6414 12.7508 35.7581C11.2494 36.0004 9.74026 36.0287 8.22742 35.9606C7.69295 35.9365 7.15743 35.8821 6.6282 35.8046C6.04766 35.7199 5.46869 35.6136 4.89811 35.4775C4.29506 35.3336 3.7051 35.141 3.13347 34.8924C2.32522 34.5407 1.59602 34.0848 1.0359 33.3919C0.577331 32.8256 0.334438 32.1808 0.334962 31.4454C0.335485 30.798 0.383645 30.1548 0.532836 29.5267C0.648001 29.0426 0.803997 28.5663 0.971509 28.0974C1.2657 27.2736 1.70961 26.5283 2.24199 25.8364C2.88377 25.0021 3.6449 24.2945 4.53324 23.7277C4.85466 23.5225 5.18916 23.3383 5.53622 23.1337C5.51685 23.1033 5.49644 23.0567 5.46398 23.0232C5.02008 22.5621 4.65102 22.0471 4.394 21.4615C4.25004 21.1333 4.14273 20.7874 4.0396 20.4435C3.85743 19.8338 3.84906 19.2062 3.89041 18.5782C3.9213 18.1072 4.03123 17.6523 4.18513 17.2059C4.37515 16.6548 4.64579 16.1487 4.99338 15.6834C5.55507 14.9318 6.26229 14.3498 7.10822 13.9468C7.95992 13.5412 8.86396 13.3465 9.8057 13.4046C11.6651 13.5198 13.1444 14.3441 14.2244 15.8629C14.6222 16.4229 14.8881 17.0468 15.0583 17.7162C15.2383 18.4248 15.2697 19.1419 15.1713 19.8558C15.007 21.0501 14.5044 22.0948 13.6716 22.9746C13.6255 23.0232 13.5857 23.0787 13.5328 23.1431L13.5323 23.1426ZM9.5225 33.5034C10.1884 33.4636 10.8369 33.4364 11.4834 33.3819C11.9425 33.3432 12.4053 33.2971 12.8549 33.2019C13.4104 33.0841 13.9574 32.9235 14.5018 32.7602C14.9782 32.6178 15.4184 32.3886 15.8293 32.1091C16.0738 31.9432 16.2371 31.726 16.2361 31.4083C16.234 30.7593 16.1445 30.1229 15.9545 29.5042C15.777 28.9259 15.5252 28.3784 15.197 27.8671C14.5196 26.8104 13.6213 26.0039 12.4969 25.4444C11.7436 25.0696 10.9464 24.854 10.113 24.7786C9.35237 24.7096 8.59594 24.7629 7.86151 24.9802C7.45476 25.1005 7.04855 25.235 6.66274 25.4093C6.0864 25.6694 5.56501 26.0253 5.09493 26.4503C4.12074 27.3317 3.44389 28.3973 3.09368 29.6686C2.93769 30.2349 2.85655 30.8085 2.85655 31.3957C2.85655 31.5925 2.89214 31.7793 3.04081 31.9071C3.21984 32.0614 3.41719 32.198 3.61873 32.3226C4.03856 32.5817 4.49817 32.7586 4.96878 32.8962C5.34725 33.0072 5.73567 33.0878 6.12356 33.1637C6.52873 33.2432 6.936 33.327 7.34641 33.3636C8.07508 33.4285 8.80638 33.4594 9.52197 33.5034H9.5225ZM12.6974 19.0749C12.7031 17.3179 11.2903 15.9153 9.53663 15.9194C7.78141 15.9231 6.38949 17.3472 6.38949 19.0801C6.38949 20.8214 7.81335 22.2418 9.55338 22.2361C11.2908 22.2298 12.7105 20.8193 12.6969 19.0754L12.6974 19.0749Z" fill="#3DB2BB"/>
<path d="M17.9976 9.04743C17.9138 9.06261 17.8526 9.06627 17.7955 9.08511C17.2757 9.25678 16.5874 8.9192 16.3513 8.40053C16.1 7.8489 16.3005 7.17792 16.7622 6.84139C17.4118 6.36826 18.0473 5.87576 18.6907 5.39425C19.5764 4.73113 20.4632 4.07011 21.3499 3.40856C22.0561 2.88152 22.7633 2.35709 23.4679 1.82848C24.1443 1.32081 24.8201 0.811561 25.4927 0.298651C25.8597 0.0191672 26.2675 -0.0682368 26.7062 0.0537102C26.8721 0.0997674 27.0302 0.200779 27.1721 0.304408C27.6615 0.662922 28.141 1.034 28.6257 1.39931C29.2586 1.87663 29.8926 2.35291 30.5265 2.82866C31.0426 3.21596 31.5609 3.60064 32.077 3.98846C32.6104 4.38885 33.1439 4.78975 33.6757 5.19171C34.4065 5.74387 35.1472 6.28347 35.8623 6.855C36.5899 7.43647 36.4496 8.54499 35.6131 8.96107C35.3503 9.09192 35.0656 9.09767 34.7813 9.05057C34.6824 9.03382 34.6531 9.06365 34.6567 9.15368C34.6583 9.19293 34.6567 9.23218 34.6567 9.27143C34.6567 11.3288 34.6567 13.3862 34.6567 15.4436C34.6567 16.3574 34.3149 17.12 33.6291 17.7219C33.2847 18.0239 32.8889 18.2437 32.4356 18.3295C32.1676 18.3803 31.8933 18.4195 31.6216 18.4201C28.0944 18.4258 24.5678 18.4201 21.0406 18.4264C20.0952 18.4279 19.31 18.0956 18.6933 17.3806C18.3881 17.0268 18.1698 16.6212 18.0882 16.1575C18.0416 15.8932 18.0117 15.6226 18.0107 15.3547C18.0044 13.3192 18.0075 11.2838 18.007 9.24788C18.007 9.18822 18.0013 9.12855 17.9971 9.04952L17.9976 9.04743ZM26.3287 15.9021C28.0944 15.9021 29.8601 15.9021 31.6253 15.9021C31.9954 15.9021 32.1393 15.7571 32.1393 15.3897C32.1393 12.7137 32.1388 10.0377 32.1419 7.36111C32.1419 7.25329 32.11 7.18316 32.0262 7.1214C31.4682 6.70846 30.9123 6.29342 30.3564 5.87733C29.6266 5.33145 28.8985 4.784 28.1693 4.23759C27.5861 3.80005 27.0019 3.36407 26.4203 2.92444C26.3528 2.87367 26.3094 2.86948 26.2403 2.92444C26.0748 3.0579 25.9005 3.17932 25.7304 3.3065C25.2059 3.69851 24.6819 4.09104 24.1573 4.48305C23.5255 4.95619 22.8937 5.42932 22.2618 5.90193C21.741 6.29185 21.2233 6.6849 20.6982 7.06854C20.5694 7.16275 20.5213 7.26376 20.5213 7.42444C20.5265 10.0612 20.5249 12.698 20.5249 15.3353C20.5249 15.3965 20.526 15.4572 20.527 15.5185C20.5291 15.6504 20.5825 15.7681 20.6977 15.8205C20.8071 15.8707 20.9364 15.899 21.0573 15.899C22.8141 15.9037 24.5709 15.9021 26.3277 15.9021H26.3287Z" fill="#3DB2BB"/>
<path d="M9.84443 2.53335C8.24888 2.53335 6.65332 2.53702 5.05777 2.53126C4.60653 2.52969 4.18356 2.61081 3.80509 2.86413C3.38264 3.14675 3.07013 3.52044 2.94763 4.01975C2.88743 4.26573 2.86021 4.52585 2.85916 4.77969C2.85236 6.92815 2.8555 9.07714 2.8555 11.2256C2.8555 11.7024 2.67595 12.0902 2.27654 12.3603C1.73526 12.7256 1.02386 12.6078 0.603505 12.0876C0.455885 11.905 0.359565 11.6977 0.345954 11.459C0.34072 11.368 0.336008 11.2764 0.335485 11.1848C0.334961 9.03161 0.337579 6.87843 0.333391 4.72578C0.332344 4.22962 0.379457 3.74026 0.529171 3.26922C0.822318 2.34703 1.34422 1.57767 2.11269 0.978923C2.43358 0.728748 2.78117 0.522537 3.15388 0.367618C3.72499 0.129481 4.32438 0.0127677 4.94627 0.0132911C8.27243 0.0153846 11.5986 0.0174781 14.9248 0.011721C15.5692 0.0106742 16.0319 0.377038 16.1858 0.911407C16.3261 1.39972 16.2162 1.86029 15.7869 2.23084C15.5341 2.44909 15.2331 2.53283 14.9059 2.53283C13.2188 2.53388 11.5316 2.53283 9.84443 2.53283V2.53335Z" fill="#3DB2BB"/>
<path d="M27.7489 35.998C26.3146 35.998 24.8802 35.9949 23.4459 36.0001C23.0858 36.0017 22.7753 35.9022 22.5016 35.6641C21.9048 35.146 21.9812 34.1201 22.6507 33.6988C22.9025 33.5402 23.1753 33.478 23.4689 33.478C26.1633 33.479 28.8576 33.4811 31.5519 33.4748C31.81 33.4743 32.0749 33.4466 32.3251 33.3843C32.8188 33.2618 33.1909 32.953 33.4721 32.5354C33.7343 32.1454 33.8107 31.7084 33.8097 31.2447C33.8045 28.8126 33.8071 26.3804 33.8076 23.9483C33.8076 23.4888 33.9704 23.1051 34.3515 22.8351C34.9237 22.4295 35.7774 22.5765 36.1549 23.2281C36.2747 23.4349 36.3266 23.6531 36.3266 23.8881C36.3266 26.3988 36.325 28.9094 36.3266 31.42C36.3266 31.8722 36.2674 32.3176 36.1308 32.7458C35.8371 33.6674 35.3152 34.4373 34.5462 35.0355C34.1023 35.381 33.6108 35.6353 33.0774 35.8028C32.6094 35.9499 32.1252 36.0017 31.6336 36.0001C30.339 35.9965 29.044 35.9991 27.7494 35.9991L27.7489 35.998Z" fill="#3DB2BB"/>
<path d="M9.52248 33.5031C8.80689 33.4591 8.07559 33.4282 7.34691 33.3633C6.93651 33.3267 6.52924 33.2429 6.12407 33.1634C5.7367 33.087 5.34828 33.0064 4.96928 32.8959C4.49868 32.7583 4.03907 32.5814 3.61924 32.3223C3.4177 32.1978 3.22087 32.0612 3.04132 31.9068C2.89318 31.7791 2.85706 31.5922 2.85706 31.3954C2.85706 30.8082 2.93819 30.2351 3.09419 29.6683C3.44492 28.397 4.12125 27.3309 5.09544 26.45C5.56552 26.025 6.08743 25.6692 6.66325 25.409C7.04906 25.2347 7.45527 25.1002 7.86201 24.9799C8.59698 24.7627 9.35287 24.7093 10.1135 24.7784C10.9469 24.8543 11.7441 25.0694 12.4974 25.4441C13.6223 26.0036 14.5201 26.8101 15.1975 27.8668C15.5257 28.3787 15.777 28.9256 15.955 29.5039C16.145 30.1226 16.2345 30.759 16.2366 31.408C16.2376 31.7257 16.0743 31.9429 15.8298 32.1088C15.4189 32.3883 14.9787 32.617 14.5023 32.7599C13.9579 32.9226 13.4109 33.0838 12.8555 33.2016C12.4058 33.2969 11.943 33.3429 11.4839 33.3816C10.8375 33.4361 10.1889 33.4633 9.52301 33.5031H9.52248Z" fill="#3DB2BB" fill-opacity="0.27"/>
<path d="M12.6974 19.0739C12.711 20.8178 11.2913 22.2283 9.55391 22.2346C7.81387 22.2409 6.39001 20.8199 6.39001 19.0787C6.39001 17.3458 7.78194 15.9222 9.53716 15.918C11.2908 15.9143 12.7037 17.3164 12.6979 19.0734L12.6974 19.0739Z" fill="#3DB2BB" fill-opacity="0.27"/>
<path d="M26.3287 15.9005C24.572 15.9005 22.8152 15.9021 21.0584 15.8974C20.9375 15.8974 20.8082 15.8686 20.6988 15.8189C20.5836 15.7666 20.5302 15.6483 20.5281 15.5169C20.527 15.4557 20.526 15.395 20.526 15.3337C20.526 12.6969 20.5276 10.0602 20.5223 7.42287C20.5223 7.26219 20.57 7.16118 20.6993 7.06697C21.2243 6.68386 21.7426 6.29028 22.2629 5.90036C22.8947 5.42723 23.5266 4.95409 24.1584 4.48148C24.6824 4.08895 25.2069 3.69694 25.7315 3.30493C25.9016 3.17775 26.0759 3.0558 26.2413 2.92287C26.3104 2.86739 26.3539 2.87158 26.4214 2.92287C27.003 3.3625 27.5872 3.799 28.1703 4.23602C28.8995 4.78243 29.6277 5.32988 30.3574 5.87576C30.9133 6.29185 31.4698 6.70689 32.0273 7.11983C32.1111 7.18211 32.143 7.25172 32.143 7.35954C32.1393 10.0356 32.1404 12.7116 32.1404 15.3881C32.1404 15.755 31.9964 15.9 31.6263 15.9005C29.8606 15.9016 28.0949 15.9005 26.3298 15.9005H26.3287Z" fill="#3DB2BB" fill-opacity="0.27"/>
</g>
<defs>
<clipPath id="clip0_226_2927">
<rect width="36" height="36" fill="white" transform="translate(0.333374)"/>
</clipPath>
</defs>
</svg>
