<svg width="32" height="33" viewBox="0 0 32 33" fill="none" xmlns="http://www.w3.org/2000/svg">
<path d="M0 32.6992L2.24933 24.4819C0.861331 22.0766 0.132 19.3499 0.133333 16.5539C0.137333 7.81255 7.25065 0.699219 15.9906 0.699219C20.232 0.700552 24.2133 2.35255 27.2079 5.34989C30.2013 8.34722 31.8493 12.3312 31.8479 16.5686C31.8439 25.3112 24.7306 32.4246 15.9906 32.4246C13.3373 32.4232 10.7226 31.7579 8.40665 30.4939L0 32.6992ZM8.79598 27.6232C11.0306 28.9499 13.164 29.7446 15.9853 29.7459C23.2493 29.7459 29.1666 23.8339 29.1706 16.5659C29.1733 9.28322 23.2839 3.37922 15.996 3.37655C8.72665 3.37655 2.81333 9.28855 2.81066 16.5552C2.80933 19.5219 3.67866 21.7432 5.13866 24.0672L3.80666 28.9312L8.79598 27.6232ZM23.9786 20.3379C23.8799 20.1726 23.6159 20.0739 23.2186 19.8752C22.8226 19.6766 20.8746 18.7179 20.5106 18.5859C20.148 18.4539 19.884 18.3872 19.6186 18.7846C19.3546 19.1806 18.5946 20.0739 18.364 20.3379C18.1333 20.6019 17.9013 20.6352 17.5053 20.4366C17.1093 20.2379 15.832 19.8206 14.3186 18.4699C13.1413 17.4192 12.3453 16.1219 12.1146 15.7246C11.884 15.3286 12.0906 15.1139 12.288 14.9166C12.4666 14.7392 12.684 14.4539 12.8826 14.2219C13.084 13.9926 13.1493 13.8272 13.2826 13.5619C13.4146 13.2979 13.3493 13.0659 13.2493 12.8672C13.1493 12.6699 12.3573 10.7192 12.028 9.92589C11.7053 9.15389 11.3786 9.25789 11.136 9.24589L10.376 9.23255C10.112 9.23255 9.68264 9.33122 9.31998 9.72855C8.95731 10.1259 7.93332 11.0832 7.93332 13.0339C7.93332 14.9846 9.35331 16.8686 9.55064 17.1326C9.74931 17.3966 12.344 21.3992 16.3186 23.1152C17.264 23.5232 18.0026 23.7672 18.5773 23.9499C19.5266 24.2512 20.3906 24.2086 21.0733 24.1072C21.8346 23.9939 23.4173 23.1486 23.7479 22.2232C24.0786 21.2966 24.0786 20.5032 23.9786 20.3379Z" fill="white"/>
</svg>
