<svg width="33" height="33" viewBox="0 0 33 33" fill="none" xmlns="http://www.w3.org/2000/svg">
<path d="M32.6713 10.2996C32.6713 10.2996 32.349 8.09336 31.3564 7.12461C30.0996 5.84961 28.6945 5.84336 28.05 5.76836C23.4352 5.44336 16.5064 5.44336 16.5064 5.44336H16.4936C16.4936 5.44336 9.56484 5.44336 4.95 5.76836C4.30547 5.84336 2.90039 5.84961 1.64355 7.12461C0.650977 8.09336 0.335156 10.2996 0.335156 10.2996C0.335156 10.2996 0 12.8934 0 15.4809V17.9059C0 20.4934 0.328711 23.0871 0.328711 23.0871C0.328711 23.0871 0.650976 25.2934 1.63711 26.2621C2.89395 27.5371 4.54395 27.4934 5.27871 27.6309C7.92129 27.8746 16.5 27.9496 16.5 27.9496C16.5 27.9496 23.4352 27.9371 28.05 27.6184C28.6945 27.5434 30.0996 27.5371 31.3564 26.2621C32.349 25.2934 32.6713 23.0871 32.6713 23.0871C32.6713 23.0871 33 20.4996 33 17.9059V15.4809C33 12.8934 32.6713 10.2996 32.6713 10.2996ZM13.0904 20.8496V11.8559L22.0043 16.3684L13.0904 20.8496Z" fill="white"/>
</svg>
