<svg width="32" height="33" viewBox="0 0 32 33" fill="none" xmlns="http://www.w3.org/2000/svg">
<g clip-path="url(#clip0_160_3553)">
<path d="M16 0.699219C7.16352 0.699219 0 7.86274 0 16.6992C0 24.2026 5.16608 30.4989 12.135 32.2282V21.5888H8.83584V16.6992H12.135V14.5923C12.135 9.14658 14.5997 6.62242 19.9462 6.62242C20.96 6.62242 22.7091 6.82146 23.4246 7.01986V11.4519C23.047 11.4122 22.391 11.3923 21.5763 11.3923C18.953 11.3923 17.9392 12.3863 17.9392 14.9699V16.6992H23.1654L22.2675 21.5888H17.9392V32.5821C25.8618 31.6253 32.0006 24.8797 32.0006 16.6992C32 7.86274 24.8365 0.699219 16 0.699219Z" fill="white"/>
</g>
<defs>
<clipPath id="clip0_160_3553">
<rect width="32" height="32" fill="white" transform="translate(0 0.699219)"/>
</clipPath>
</defs>
</svg>
