<svg width="37" height="36" viewBox="0 0 37 36" fill="none" xmlns="http://www.w3.org/2000/svg">
<g clip-path="url(#clip0_296_5610)">
<path d="M35.027 13.177C34.5884 12.7775 34.0754 12.4683 33.5173 12.2671C32.9592 12.066 32.3669 11.9768 31.7743 12.0046C31.1817 12.0325 30.6004 12.1769 30.0636 12.4295C29.5269 12.6821 29.0451 13.0381 28.646 13.477L23.8205 18.7795C23.4011 18.0843 22.8093 17.5091 22.1024 17.1097C21.3955 16.7102 20.5974 16.5001 19.7855 16.4995H5C3.80653 16.4995 2.66193 16.9736 1.81802 17.8175C0.974106 18.6614 0.5 19.806 0.5 20.9995L0.5 31.4995C0.5 32.693 0.974106 33.8376 1.81802 34.6815C2.66193 35.5254 3.80653 35.9995 5 35.9995H20.672L35.3525 19.522C36.1407 18.6328 36.5482 17.4696 36.4873 16.2829C36.4265 15.0963 35.9021 13.9809 35.027 13.177ZM33.113 17.527L19.328 32.9995H5C4.60217 32.9995 4.22064 32.8415 3.93934 32.5602C3.65804 32.2789 3.5 31.8973 3.5 31.4995V20.9995C3.5 20.6017 3.65804 20.2202 3.93934 19.9389C4.22064 19.6576 4.60217 19.4995 5 19.4995H19.7855C20.2199 19.4976 20.6388 19.6608 20.9574 19.9561C21.276 20.2514 21.4705 20.6567 21.5015 21.09C21.5326 21.5232 21.3979 21.9521 21.1247 22.2899C20.8515 22.6276 20.4602 22.8489 20.03 22.909L12.287 24.0145L12.713 26.9845L20.4545 25.8775C21.3036 25.753 22.1029 25.3999 22.7669 24.8562C23.4308 24.3124 23.9345 23.5984 24.224 22.7905L30.8645 15.4945C30.998 15.3467 31.1596 15.2269 31.3399 15.1421C31.5201 15.0574 31.7155 15.0094 31.9145 15.001C32.3158 14.985 32.7075 15.1259 33.0065 15.394C33.3001 15.6644 33.4758 16.0393 33.4957 16.438C33.5156 16.8366 33.3782 17.2272 33.113 17.5255V17.527ZM16.1345 13.7245L17 14.338L17.8655 13.7245C18.545 13.2445 24.5 8.91251 24.5 4.79951C24.5368 3.56706 24.0841 2.37018 23.2408 1.47066C22.3975 0.571139 21.2323 0.0421927 20 -0.000485635C18.9006 -0.0145359 17.8338 0.373233 17 1.09001C16.1662 0.373233 15.0994 -0.0145359 14 -0.000485635C12.7677 0.0421927 11.6025 0.571139 10.7592 1.47066C9.91592 2.37018 9.46317 3.56706 9.5 4.79951C9.5 8.91251 15.455 13.2445 16.1345 13.7245ZM14 2.99951C14.2004 2.98626 14.4013 3.01597 14.5893 3.08666C14.7773 3.15735 14.9481 3.2674 15.0901 3.40942C15.2321 3.55144 15.3422 3.72217 15.4129 3.91017C15.4835 4.09817 15.5133 4.2991 15.5 4.49951H18.5C18.4867 4.2991 18.5165 4.09817 18.5871 3.91017C18.6578 3.72217 18.7679 3.55144 18.9099 3.40942C19.0519 3.2674 19.2227 3.15735 19.4107 3.08666C19.5987 3.01597 19.7996 2.98626 20 2.99951C20.436 3.04326 20.8374 3.25634 21.1179 3.59295C21.3984 3.92956 21.5356 4.3628 21.5 4.79951C21.5 6.41051 19.1 8.95151 17 10.621C15.14 9.12101 12.5 6.53051 12.5 4.79951C12.4644 4.3628 12.6016 3.92956 12.8821 3.59295C13.1626 3.25634 13.564 3.04326 14 2.99951Z" fill="#374957"/>
</g>
<defs>
<clipPath id="clip0_296_5610">
<rect width="36" height="36" fill="white" transform="translate(0.5)"/>
</clipPath>
</defs>
</svg>
