<svg width="203" height="68" viewBox="0 0 203 68" fill="none" xmlns="http://www.w3.org/2000/svg">
<path d="M186.4 0.000220022H16.1372C15.5166 0.000220022 14.9034 0.000220022 14.2844 0.00360497C13.7662 0.00698992 13.2522 0.0168232 12.7291 0.0250994C11.5926 0.038473 10.4588 0.138455 9.33755 0.324177C8.21785 0.513941 7.13323 0.871702 6.12036 1.38536C5.10873 1.90336 4.18438 2.57645 3.38084 3.38021C2.57307 4.18171 1.89974 5.10814 1.38673 6.12386C0.872302 7.13757 0.515596 8.22385 0.328932 9.34518C0.140494 10.4651 0.0390934 11.5979 0.025641 12.7335C0.00993483 13.2524 0.0082762 13.7731 0 14.292V53.4123C0.0082762 53.9379 0.00993483 54.4469 0.025641 54.9726C0.0390975 56.1082 0.140498 57.2409 0.328932 58.3608C0.515081 59.4828 0.871807 60.5697 1.38673 61.5838C1.89951 62.5962 2.57294 63.5189 3.38084 64.3159C4.18133 65.1233 5.10628 65.7968 6.12036 66.3109C7.13322 66.8259 8.21773 67.1858 9.33755 67.3785C10.459 67.5627 11.5927 67.6627 12.7291 67.6777C13.2522 67.6892 13.7662 67.6958 14.2844 67.6958C14.9034 67.6992 15.5166 67.6992 16.1372 67.6992H186.4C187.009 67.6992 187.627 67.6992 188.235 67.6958C188.751 67.6958 189.28 67.6892 189.795 67.6777C190.929 67.6635 192.061 67.5635 193.18 67.3785C194.304 67.1844 195.392 66.8246 196.41 66.3109C197.423 65.7965 198.347 65.123 199.147 64.3159C199.953 63.5158 200.628 62.5938 201.147 61.5838C201.658 60.569 202.011 59.4821 202.194 58.3608C202.383 57.2408 202.488 56.1083 202.509 54.9726C202.515 54.4469 202.515 53.9379 202.515 53.4123C202.528 52.7975 202.528 52.186 202.528 51.5611V16.1399C202.528 15.5201 202.528 14.9052 202.515 14.292C202.515 13.7731 202.515 13.2524 202.509 12.7334C202.488 11.5978 202.383 10.4652 202.194 9.34512C202.011 8.22443 201.657 7.13824 201.147 6.1238C200.102 4.08788 198.445 2.43066 196.41 1.38521C195.392 0.872805 194.303 0.515139 193.18 0.324024C192.061 0.137484 190.93 0.0374676 189.795 0.0248624C189.28 0.0166032 188.751 0.00668527 188.235 0.00338495C187.627 0 187.009 0 186.4 0V0.000220022Z" fill="black"/>
<path d="M14.2927 66.2176C13.777 66.2176 13.2738 66.211 12.7622 66.1995C11.7023 66.1857 10.6449 66.0934 9.59869 65.9235C8.62313 65.7554 7.67808 65.4429 6.7947 64.9962C5.91942 64.5531 5.1211 63.9722 4.43031 63.2756C3.72953 62.5872 3.14609 61.7888 2.70313 60.912C2.25528 60.0296 1.94534 59.0837 1.78411 58.1073C1.61 57.0581 1.5158 55.9973 1.50232 54.9339C1.49159 54.5769 1.47754 53.3885 1.47754 53.3885V14.2914C1.47754 14.2914 1.4925 13.1212 1.5024 12.7774C1.51531 11.7157 1.60896 10.6565 1.78256 9.60897C1.94408 8.6299 2.25426 7.68127 2.70235 6.7959C3.14369 5.91973 3.72388 5.12074 4.42045 4.42991C5.11623 3.73251 5.91711 3.14858 6.79387 2.69941C7.67522 2.25409 8.61849 1.94375 9.59207 1.7788C10.6417 1.60713 11.7028 1.51431 12.7663 1.50113L14.2935 1.48047H188.227L189.772 1.50196C190.826 1.51449 191.877 1.60647 192.917 1.77714C193.901 1.94416 194.854 2.25666 195.745 2.70436C197.502 3.60958 198.931 5.04171 199.833 6.80003C200.274 7.67929 200.579 8.62018 200.738 9.59079C200.914 10.6469 201.012 11.7144 201.033 12.7848C201.037 13.2642 201.037 13.779 201.037 14.2914C201.051 14.9261 201.051 15.5302 201.051 16.1392V51.5605C201.051 52.1753 201.051 52.7753 201.037 53.3802C201.037 53.9306 201.037 54.4348 201.031 54.9537C201.011 56.005 200.914 57.0535 200.742 58.0907C200.584 59.0741 200.275 60.0274 199.828 60.9171C199.382 61.7844 198.802 62.5759 198.109 63.2624C197.417 63.9627 196.618 64.5471 195.74 64.9929C194.851 65.4431 193.9 65.7568 192.917 65.9235C191.871 66.0943 190.814 66.1866 189.754 66.1995C189.258 66.211 188.739 66.2176 188.235 66.2176L186.4 66.221L14.2927 66.2176Z" fill="white"/>
<path d="M42.3064 33.6621C42.3253 32.1931 42.7155 30.7527 43.4407 29.4751C44.1659 28.1974 45.2024 27.1239 46.4539 26.3545C45.6589 25.219 44.61 24.2845 43.3907 23.6253C42.1713 22.9661 40.815 22.6003 39.4295 22.557C36.474 22.2467 33.6089 24.3255 32.1028 24.3255C30.5676 24.3255 28.2488 22.5878 25.7518 22.6391C24.1367 22.6913 22.5627 23.161 21.1831 24.0023C19.8034 24.8437 18.6653 26.0281 17.8795 27.4402C14.4758 33.3334 17.0147 41.9944 20.2752 46.7581C21.9066 49.0907 23.8131 51.6963 26.3078 51.6039C28.7491 51.5026 29.6608 50.0472 32.6076 50.0472C35.527 50.0472 36.3824 51.6039 38.9277 51.5451C41.5473 51.5026 43.1977 49.2022 44.7718 46.8474C45.944 45.1854 46.8459 43.3484 47.4443 41.4046C45.9224 40.761 44.6236 39.6835 43.71 38.3067C42.7963 36.9298 42.3082 35.3145 42.3064 33.6621Z" fill="black"/>
<path d="M37.4987 19.4247C38.927 17.7101 39.6307 15.5063 39.4603 13.2812C37.2782 13.5104 35.2625 14.5533 33.8149 16.2022C33.1072 17.0076 32.5651 17.9447 32.2197 18.9598C31.8743 19.975 31.7324 21.0482 31.802 22.1182C32.8935 22.1294 33.9732 21.8929 34.96 21.4263C35.9467 20.9598 36.8148 20.2754 37.4987 19.4247Z" fill="black"/>
<path d="M71.5949 45.9321H63.5837L61.6599 51.6128H58.2667L65.8547 30.5957H69.3801L76.9682 51.6128H73.5171L71.5949 45.9321ZM64.4135 43.3108H70.7636L67.6332 34.0914H67.5455L64.4135 43.3108Z" fill="black"/>
<path d="M93.3558 43.9525C93.3558 48.7143 90.8071 51.7736 86.9611 51.7736C85.9868 51.8246 85.0178 51.6001 84.1652 51.126C83.3125 50.6519 82.6106 49.9472 82.1398 49.0927H82.067V56.6824H78.9218V36.2901H81.9662V38.8387H82.0241C82.5165 37.9883 83.2303 37.2873 84.0894 36.8103C84.9486 36.3333 85.921 36.0981 86.9032 36.1298C90.7923 36.1298 93.3558 39.204 93.3558 43.9525ZM90.1229 43.9525C90.1229 40.8502 88.5196 38.8106 86.0735 38.8106C83.6703 38.8106 82.0539 40.8932 82.0539 43.9525C82.0539 47.04 83.6703 49.1076 86.0735 49.1076C88.5197 49.1076 90.1228 47.0829 90.1228 43.9525H90.1229Z" fill="black"/>
<path d="M110.222 43.9525C110.222 48.7143 107.672 51.7736 103.826 51.7736C102.852 51.8246 101.883 51.6001 101.03 51.126C100.178 50.6519 99.4758 49.9472 99.0051 49.0927H98.9323V56.6824H95.787V36.2901H98.8315V38.8387H98.8893C99.3817 37.9883 100.096 37.2873 100.955 36.8103C101.814 36.3333 102.786 36.0981 103.768 36.1298C107.658 36.1298 110.222 39.204 110.222 43.9525ZM106.988 43.9525C106.988 40.8502 105.385 38.8106 102.939 38.8106C100.536 38.8106 98.9191 40.8932 98.9191 43.9525C98.9191 47.04 100.536 49.1076 102.939 49.1076C105.385 49.1076 106.988 47.0829 106.988 43.9525Z" fill="black"/>
<path d="M121.367 45.7578C121.6 47.842 123.624 49.2104 126.391 49.2104C129.042 49.2104 130.95 47.8419 130.95 45.9626C130.95 44.3313 129.799 43.3545 127.075 42.6851L124.352 42.029C120.492 41.0968 118.701 39.2919 118.701 36.3631C118.701 32.7369 121.861 30.2461 126.347 30.2461C130.789 30.2461 133.834 32.7369 133.936 36.3631H130.761C130.571 34.2657 128.837 32.9997 126.304 32.9997C123.77 32.9997 122.036 34.2806 122.036 36.145C122.036 37.6308 123.143 38.5052 125.852 39.1745L128.168 39.7431C132.48 40.7629 134.27 42.495 134.27 45.5692C134.27 49.5012 131.14 51.9639 126.158 51.9639C121.497 51.9639 118.35 49.5591 118.147 45.7576L121.367 45.7578Z" fill="black"/>
<path d="M141.062 32.6641V36.2903H143.975V38.7811H141.062V47.2286C141.062 48.5409 141.645 49.1525 142.926 49.1525C143.272 49.1464 143.617 49.1221 143.961 49.0797V51.5556C143.385 51.6632 142.799 51.7119 142.214 51.701C139.111 51.701 137.901 50.5358 137.901 47.5641V38.7811H135.673V36.2903H137.901V32.6641H141.062Z" fill="black"/>
<path d="M145.661 43.9524C145.661 39.1312 148.501 36.1016 152.929 36.1016C157.371 36.1016 160.198 39.1311 160.198 43.9524C160.198 48.7869 157.386 51.8032 152.929 51.8032C148.473 51.8032 145.661 48.7868 145.661 43.9524ZM156.993 43.9524C156.993 40.6451 155.477 38.6932 152.929 38.6932C150.38 38.6932 148.864 40.66 148.864 43.9524C148.864 47.2729 150.38 49.21 152.929 49.21C155.477 49.21 156.993 47.2729 156.993 43.9524H156.993Z" fill="black"/>
<path d="M162.791 36.29H165.791V38.8981H165.864C166.067 38.0835 166.544 37.3636 167.215 36.8595C167.886 36.3553 168.71 36.0976 169.549 36.1296C169.912 36.1284 170.273 36.1677 170.627 36.247V39.189C170.169 39.0491 169.692 38.9849 169.214 38.9989C168.757 38.9804 168.301 39.0609 167.878 39.2351C167.456 39.4092 167.075 39.6728 166.764 40.0077C166.453 40.3426 166.217 40.741 166.075 41.1754C165.932 41.6098 165.884 42.07 165.936 42.5243V51.6131H162.791L162.791 36.29Z" fill="black"/>
<path d="M185.129 47.1126C184.706 49.8942 181.997 51.8032 178.531 51.8032C174.073 51.8032 171.306 48.8166 171.306 44.0251C171.306 39.2188 174.088 36.1016 178.398 36.1016C182.638 36.1016 185.304 39.0138 185.304 43.6598V44.7375H174.481V44.9275C174.431 45.4915 174.502 46.0596 174.688 46.5941C174.875 47.1287 175.173 47.6174 175.563 48.028C175.953 48.4385 176.425 48.7613 176.95 48.9751C177.474 49.1889 178.038 49.2886 178.603 49.2678C179.347 49.3375 180.093 49.1653 180.73 48.777C181.368 48.3887 181.863 47.8049 182.142 47.1125L185.129 47.1126ZM174.496 42.5392H182.157C182.185 42.0322 182.108 41.5248 181.931 41.0488C181.754 40.5729 181.48 40.1387 181.127 39.7735C180.774 39.4083 180.35 39.1201 179.88 38.9267C179.411 38.7334 178.906 38.6393 178.398 38.6502C177.886 38.6471 177.378 38.7455 176.905 38.9397C176.431 39.1339 176 39.4201 175.637 39.7817C175.274 40.1432 174.987 40.5731 174.791 41.0464C174.595 41.5197 174.495 42.0271 174.496 42.5393V42.5392Z" fill="black"/>
<path d="M64.0199 14.7771C64.6793 14.7298 65.341 14.8294 65.9573 15.0688C66.5735 15.3081 67.129 15.6813 67.5836 16.1613C68.0381 16.6413 68.3805 17.2163 68.586 17.8446C68.7914 18.473 68.8549 19.1391 68.7718 19.795C68.7718 23.0213 67.0281 24.8758 64.0199 24.8758H60.3722V14.7771H64.0199ZM61.9407 23.4476H63.8447C64.3159 23.4758 64.7875 23.3985 65.225 23.2215C65.6626 23.0444 66.0552 22.772 66.3742 22.4241C66.6932 22.0762 66.9307 21.6615 67.0692 21.2103C67.2078 20.759 67.2439 20.2826 67.1751 19.8156C67.2389 19.3504 67.1991 18.8769 67.0584 18.429C66.9177 17.9811 66.6797 17.5698 66.3614 17.2246C66.0431 16.8795 65.6524 16.609 65.2173 16.4326C64.7822 16.2562 64.3135 16.1782 63.8447 16.2042H61.9407V23.4476Z" fill="black"/>
<path d="M70.5436 21.0617C70.4956 20.5608 70.5529 20.0555 70.7118 19.5781C70.8706 19.1007 71.1274 18.6618 71.4658 18.2895C71.8042 17.9172 72.2167 17.6197 72.6768 17.4161C73.1369 17.2126 73.6345 17.1074 74.1376 17.1074C74.6407 17.1074 75.1383 17.2126 75.5984 17.4161C76.0585 17.6197 76.4709 17.9172 76.8093 18.2895C77.1477 18.6618 77.4046 19.1007 77.5634 19.5781C77.7222 20.0555 77.7795 20.5608 77.7316 21.0617C77.7804 21.563 77.7238 22.069 77.5654 22.5472C77.407 23.0254 77.1503 23.4651 76.8118 23.8382C76.4734 24.2112 76.0606 24.5093 75.6 24.7133C75.1394 24.9173 74.6413 25.0227 74.1376 25.0227C73.6339 25.0227 73.1357 24.9173 72.6751 24.7133C72.2146 24.5093 71.8018 24.2112 71.4633 23.8382C71.1248 23.4651 70.8681 23.0254 70.7097 22.5472C70.5513 22.069 70.4947 21.563 70.5436 21.0617ZM76.1846 21.0617C76.1846 19.4097 75.4425 18.4436 74.1401 18.4436C72.8327 18.4436 72.0972 19.4097 72.0972 21.0617C72.0972 22.7269 72.8327 23.6855 74.1401 23.6855C75.4425 23.6855 76.1846 22.7203 76.1846 21.0617H76.1846Z" fill="black"/>
<path d="M87.2865 24.875H85.7262L84.1511 19.2621H84.0321L82.4636 24.875H80.9182L78.8175 17.2539H80.3431L81.7083 23.0692H81.8207L83.3875 17.2539H84.8304L86.3973 23.0692H86.5163L87.8749 17.2539H89.3789L87.2865 24.875Z" fill="black"/>
<path d="M91.1458 17.2542H92.5937V18.4649H92.7061C92.8967 18.0301 93.2183 17.6656 93.626 17.4222C94.0336 17.1788 94.5071 17.0686 94.9803 17.1071C95.3512 17.0792 95.7235 17.1351 96.0698 17.2707C96.416 17.4063 96.7274 17.618 96.9807 17.8902C97.2341 18.1624 97.4229 18.4882 97.5332 18.8433C97.6436 19.1984 97.6726 19.5738 97.6182 19.9417V24.8752H96.1142V20.3194C96.1142 19.0946 95.582 18.4856 94.4696 18.4856C94.2178 18.4738 93.9665 18.5167 93.7329 18.6112C93.4992 18.7057 93.2887 18.8496 93.1159 19.033C92.9431 19.2164 92.8119 19.4351 92.7315 19.6739C92.651 19.9128 92.6232 20.1662 92.6499 20.4169V24.8753H91.1458L91.1458 17.2542Z" fill="black"/>
<path d="M100.015 14.2793H101.519V24.8754H100.015V14.2793Z" fill="black"/>
<path d="M103.61 21.0618C103.562 20.561 103.619 20.0556 103.778 19.5782C103.937 19.1008 104.194 18.6618 104.532 18.2895C104.871 17.9172 105.283 17.6197 105.743 17.4161C106.203 17.2126 106.701 17.1074 107.204 17.1074C107.707 17.1074 108.205 17.2126 108.665 17.4161C109.125 17.6197 109.538 17.9172 109.876 18.2895C110.214 18.6618 110.471 19.1008 110.63 19.5782C110.789 20.0556 110.846 20.561 110.798 21.0618C110.847 21.5632 110.791 22.0692 110.632 22.5474C110.474 23.0255 110.217 23.4653 109.878 23.8383C109.54 24.2113 109.127 24.5094 108.667 24.7134C108.206 24.9174 107.708 25.0228 107.204 25.0228C106.7 25.0228 106.202 24.9174 105.742 24.7134C105.281 24.5094 104.868 24.2113 104.53 23.8383C104.191 23.4653 103.934 23.0255 103.776 22.5474C103.618 22.0692 103.561 21.5632 103.61 21.0618ZM109.251 21.0618C109.251 19.4099 108.509 18.4438 107.206 18.4438C105.899 18.4438 105.163 19.4099 105.163 21.0618C105.163 22.7271 105.899 23.6857 107.206 23.6857C108.509 23.6857 109.251 22.7204 109.251 21.0618H109.251Z" fill="black"/>
<path d="M112.382 22.7203C112.382 21.3485 113.403 20.5577 115.216 20.4453L117.281 20.3263V19.6684C117.281 18.8635 116.749 18.409 115.721 18.409C114.881 18.409 114.299 18.7173 114.132 19.2561H112.676C112.83 17.947 114.061 17.1074 115.79 17.1074C117.701 17.1074 118.778 18.0586 118.778 19.6684V24.8756H117.33V23.8046H117.211C116.97 24.1888 116.631 24.502 116.229 24.7122C115.826 24.9224 115.376 25.0221 114.922 25.0012C114.602 25.0345 114.279 25.0003 113.973 24.901C113.667 24.8016 113.385 24.6393 113.146 24.4244C112.907 24.2095 112.715 23.9468 112.583 23.6533C112.452 23.3598 112.383 23.042 112.382 22.7203ZM117.281 22.0691V21.432L115.42 21.551C114.37 21.6212 113.894 21.9782 113.894 22.6501C113.894 23.336 114.489 23.7352 115.307 23.7352C115.547 23.7594 115.789 23.7352 116.019 23.664C116.25 23.5927 116.463 23.4759 116.647 23.3205C116.831 23.1651 116.982 22.9742 117.091 22.7592C117.2 22.5442 117.265 22.3095 117.281 22.0691Z" fill="black"/>
<path d="M120.755 21.0616C120.755 18.6535 121.993 17.1279 123.918 17.1279C124.395 17.106 124.867 17.2201 125.281 17.4568C125.695 17.6936 126.033 18.0433 126.256 18.465H126.368V14.2793H127.872V24.8754H126.431V23.6714H126.312C126.072 24.0902 125.722 24.4356 125.301 24.6699C124.879 24.9043 124.401 25.0188 123.918 25.001C121.98 25.0011 120.755 23.4755 120.755 21.0616ZM122.309 21.0616C122.309 22.6781 123.071 23.6507 124.345 23.6507C125.613 23.6507 126.396 22.664 126.396 21.0682C126.396 19.4799 125.604 18.4791 124.345 18.4791C123.079 18.4791 122.309 19.4584 122.309 21.0616H122.309Z" fill="black"/>
<path d="M134.095 21.0617C134.047 20.5608 134.104 20.0555 134.263 19.5781C134.422 19.1007 134.679 18.6618 135.017 18.2895C135.356 17.9172 135.768 17.6197 136.228 17.4161C136.688 17.2126 137.186 17.1074 137.689 17.1074C138.192 17.1074 138.69 17.2126 139.15 17.4161C139.61 17.6197 140.022 17.9172 140.361 18.2895C140.699 18.6618 140.956 19.1007 141.115 19.5781C141.274 20.0555 141.331 20.5608 141.283 21.0617C141.332 21.563 141.275 22.069 141.117 22.5472C140.958 23.0254 140.702 23.4651 140.363 23.8382C140.025 24.2112 139.612 24.5093 139.151 24.7133C138.691 24.9173 138.193 25.0227 137.689 25.0227C137.185 25.0227 136.687 24.9173 136.226 24.7133C135.766 24.5093 135.353 24.2112 135.015 23.8382C134.676 23.4651 134.419 23.0254 134.261 22.5472C134.103 22.069 134.046 21.563 134.095 21.0617ZM139.736 21.0617C139.736 19.4097 138.994 18.4436 137.691 18.4436C136.384 18.4436 135.649 19.4097 135.649 21.0617C135.649 22.7269 136.384 23.6855 137.691 23.6855C138.994 23.6855 139.736 22.7203 139.736 21.0617Z" fill="black"/>
<path d="M143.301 17.2542H144.749V18.4649H144.861C145.052 18.0301 145.373 17.6656 145.781 17.4222C146.189 17.1788 146.662 17.0686 147.135 17.1071C147.506 17.0792 147.879 17.1351 148.225 17.2707C148.571 17.4063 148.883 17.618 149.136 17.8902C149.389 18.1624 149.578 18.4882 149.688 18.8433C149.799 19.1984 149.828 19.5738 149.773 19.9417V24.8752H148.269V20.3194C148.269 19.0946 147.737 18.4856 146.625 18.4856C146.373 18.4738 146.122 18.5167 145.888 18.6112C145.654 18.7057 145.444 18.8496 145.271 19.033C145.098 19.2164 144.967 19.4351 144.887 19.6739C144.806 19.9128 144.778 20.1662 144.805 20.4169V24.8753H143.301V17.2542Z" fill="black"/>
<path d="M158.272 15.3574V17.2896H159.923V18.5564H158.272V22.4752C158.272 23.2735 158.601 23.6231 159.35 23.6231C159.541 23.6225 159.733 23.6109 159.923 23.5884V24.8412C159.653 24.8895 159.379 24.9152 159.105 24.9181C157.432 24.9181 156.766 24.3297 156.766 22.8603V18.5564H155.556V17.2895H156.766V15.3574H158.272Z" fill="black"/>
<path d="M161.978 14.2793H163.468V18.4791H163.587C163.787 18.0402 164.118 17.6736 164.534 17.4293C164.949 17.185 165.431 17.0749 165.911 17.1139C166.28 17.0938 166.649 17.1554 166.991 17.2942C167.334 17.4331 167.641 17.6458 167.892 17.9172C168.142 18.1885 168.33 18.5119 168.442 18.8641C168.553 19.2164 168.585 19.5889 168.536 19.955V24.8755H167.03V20.3261C167.03 19.1088 166.463 18.4923 165.401 18.4923C165.142 18.4711 164.882 18.5066 164.639 18.5964C164.395 18.6862 164.175 18.8281 163.992 19.0121C163.809 19.1962 163.669 19.4179 163.581 19.6619C163.493 19.9058 163.459 20.1661 163.482 20.4244V24.8754H161.978L161.978 14.2793Z" fill="black"/>
<path d="M177.306 22.818C177.101 23.5145 176.659 24.117 176.055 24.5201C175.451 24.9231 174.725 25.1011 174.003 25.0228C173.501 25.0361 173.002 24.9399 172.541 24.741C172.08 24.5421 171.668 24.2452 171.333 23.8709C170.998 23.4967 170.748 23.054 170.601 22.5736C170.455 22.0933 170.414 21.5867 170.483 21.0892C170.416 20.5901 170.457 20.0824 170.604 19.6006C170.75 19.1188 170.998 18.6741 171.331 18.2966C171.665 17.919 172.075 17.6175 172.535 17.4123C172.995 17.2072 173.493 17.1033 173.997 17.1075C176.117 17.1075 177.397 18.5563 177.397 20.9495V21.4743H172.015V21.5586C171.992 21.8382 172.027 22.1198 172.118 22.385C172.21 22.6503 172.356 22.8936 172.547 23.0991C172.738 23.3047 172.97 23.4681 173.228 23.5787C173.486 23.6894 173.764 23.745 174.045 23.7419C174.405 23.7851 174.769 23.7203 175.092 23.5558C175.415 23.3912 175.681 23.1344 175.858 22.8179L177.306 22.818ZM172.015 20.3619H175.864C175.883 20.1061 175.849 19.8492 175.762 19.6077C175.676 19.3661 175.54 19.1453 175.364 18.9594C175.187 18.7734 174.973 18.6265 174.737 18.5281C174.5 18.4296 174.245 18.3818 173.988 18.3877C173.728 18.3844 173.47 18.4332 173.229 18.5313C172.988 18.6294 172.769 18.7747 172.585 18.9587C172.402 19.1427 172.256 19.3616 172.158 19.6026C172.06 19.8436 172.012 20.1018 172.015 20.3619H172.015Z" fill="black"/>
</svg>
