<svg width="32" height="33" viewBox="0 0 32 33" fill="none" xmlns="http://www.w3.org/2000/svg">
<g clip-path="url(#clip0_160_3548)">
<path d="M16 0.699219C7.1625 0.699219 0 7.86172 0 16.6992C0 23.4805 4.21875 29.268 10.1687 31.5992C10.0312 30.3305 9.9 28.393 10.225 27.0117C10.5188 25.7617 12.1 19.0617 12.1 19.0617C12.1 19.0617 11.6187 18.1055 11.6187 16.6867C11.6187 14.4617 12.9062 12.7992 14.5125 12.7992C15.875 12.7992 16.5375 13.8242 16.5375 15.0555C16.5375 16.4305 15.6625 18.4805 15.2125 20.3805C14.8375 21.9742 16.0125 23.2742 17.5812 23.2742C20.425 23.2742 22.6125 20.2742 22.6125 15.9492C22.6125 12.118 19.8625 9.43672 15.9312 9.43672C11.3812 9.43672 8.70625 12.8492 8.70625 16.3805C8.70625 17.7555 9.2375 19.2305 9.9 20.0305C10.0312 20.1867 10.05 20.3305 10.0125 20.4867C9.89375 20.993 9.61875 22.0805 9.56875 22.2992C9.5 22.593 9.3375 22.6555 9.03125 22.5117C7.03125 21.5805 5.78125 18.6617 5.78125 16.3117C5.78125 11.2617 9.45 6.63047 16.35 6.63047C21.9 6.63047 26.2125 10.5867 26.2125 15.8742C26.2125 21.3867 22.7375 25.8242 17.9125 25.8242C16.2938 25.8242 14.7687 24.9805 14.2437 23.9867C14.2437 23.9867 13.4438 27.043 13.25 27.793C12.8875 29.1805 11.9125 30.9242 11.2625 31.9867C12.7625 32.4492 14.35 32.6992 16 32.6992C24.8375 32.6992 32 25.5367 32 16.6992C32 7.86172 24.8375 0.699219 16 0.699219Z" fill="white"/>
</g>
<defs>
<clipPath id="clip0_160_3548">
<rect width="32" height="32" fill="white" transform="translate(0 0.699219)"/>
</clipPath>
</defs>
</svg>
