<svg width="33" height="33" viewBox="0 0 33 33" fill="none" xmlns="http://www.w3.org/2000/svg">
<g clip-path="url(#clip0_160_3547)">
<path d="M24.3267 15.5306C24.1845 15.4645 24.0402 15.401 23.8939 15.3401C23.6392 10.7889 21.0746 8.18339 16.7685 8.15672C16.7489 8.1566 16.7295 8.1566 16.71 8.1566C14.1344 8.1566 11.9923 9.2227 10.6738 11.1627L13.042 12.738C14.027 11.2889 15.5728 10.98 16.7112 10.98C16.7243 10.98 16.7375 10.98 16.7505 10.9801C18.1684 10.9889 19.2383 11.3887 19.9308 12.1682C20.4347 12.7358 20.7718 13.5201 20.9387 14.5099C19.6816 14.3027 18.322 14.239 16.8687 14.3198C12.7746 14.5485 10.1425 16.8639 10.3193 20.0812C10.409 21.7132 11.2474 23.1172 12.6801 24.0344C13.8913 24.8097 15.4514 25.1889 17.0727 25.1031C19.2139 24.9892 20.8936 24.1971 22.0655 22.7486C22.9555 21.6486 23.5183 20.2231 23.7669 18.4269C24.7873 19.0241 25.5435 19.8099 25.9612 20.7546C26.6714 22.3604 26.7128 24.9992 24.4924 27.1506C22.5469 29.0352 20.2084 29.8506 16.6742 29.8757C12.7538 29.8476 9.78893 28.6284 7.86124 26.2521C6.0561 24.0269 5.1232 20.8129 5.08839 16.6992C5.1232 12.5855 6.0561 9.37149 7.86124 7.14634C9.78893 4.77004 12.7538 3.55089 16.6741 3.52264C20.6229 3.5511 23.6395 4.77612 25.641 7.16389C26.6224 8.33482 27.3623 9.80735 27.8501 11.5243L30.6254 10.8063C30.0341 8.69292 29.1038 6.87184 27.8377 5.36155C25.2718 2.30033 21.5191 0.731743 16.6838 0.699219H16.6645C11.839 0.73163 8.12833 2.30619 5.63549 5.3791C3.4172 8.11362 2.27294 11.9185 2.2345 16.688L2.23438 16.6992L2.2345 16.7105C2.27294 21.4799 3.4172 25.2849 5.63549 28.0194C8.12833 31.0922 11.839 32.6669 16.6645 32.6992H16.6838C20.9739 32.6704 23.9979 31.5812 26.489 29.1677C29.7483 26.0102 29.6502 22.0524 28.5759 19.6227C27.8052 17.8804 26.3359 16.4653 24.3267 15.5306ZM16.9195 22.2837C15.1251 22.3817 13.2609 21.6007 13.169 19.9279C13.1009 18.6876 14.0793 17.3036 17.0296 17.1387C17.3675 17.1198 17.699 17.1106 18.0247 17.1106C19.0963 17.1106 20.0989 17.2115 21.0103 17.4047C20.6704 21.5217 18.6763 22.1902 16.9195 22.2837Z" fill="white"/>
</g>
<defs>
<clipPath id="clip0_160_3547">
<rect width="33" height="32" fill="white" transform="translate(0 0.699219)"/>
</clipPath>
</defs>
</svg>
