<svg width="70" height="85" viewBox="0 0 70 85" fill="none" xmlns="http://www.w3.org/2000/svg">
<path fill="#fff" d="M63.37 41.3149C63.6703 40.0568 63.8245 38.7743 63.8245 37.4838C63.8245 28.5471 56.6508 21.25 47.7568 21.0633C47.7243 18.0357 46.6937 15 44.9003 12.638C43.9833 11.4286 42.4658 9.89448 40.2504 8.99351C41.0538 8.01948 41.5001 6.79383 41.5001 5.51136C41.5001 2.47565 39.025 0 35.99 0C32.955 0 30.4799 2.47565 30.4799 5.51136C30.4799 6.88312 31.0074 8.20617 31.9244 9.21266C30.2527 9.9513 28.7352 11.0958 27.4936 12.5487C25.5054 14.8864 24.3612 17.8166 24.1584 21.0633C23.9961 21.0633 23.8419 21.0552 23.6796 21.0552C14.6232 21.0552 7.25481 28.4253 7.25481 37.4838C7.25481 38.4984 7.35219 39.513 7.53884 40.5195C2.74287 44.4724 0 50.276 0 56.4773C0 67.9058 9.29168 77.1997 20.7176 77.1997C25.0185 77.1997 29.1085 75.901 32.6142 73.4334C32.8982 74.2695 32.7684 74.5617 32.1354 75.9984L32.1111 76.0552C31.3888 77.6786 30.8045 79.164 30.9263 80.9659C31.0236 82.3539 31.8027 83.6282 33.0118 84.3669C33.6935 84.7808 34.4725 85 35.2678 85C35.844 85 36.4039 84.8864 36.9314 84.651C39.1062 83.7013 40.2423 81.3231 39.7067 78.8555C39.4957 77.8734 39.2117 76.9237 38.9358 75.9578C38.7572 75.3571 38.5787 74.7403 38.4245 74.1234C41.6868 76.1445 45.4034 77.1997 49.2824 77.1997C60.7083 77.1997 70 67.9058 70 56.4773C70 50.7386 67.5898 45.2273 63.3782 41.3149H63.37ZM35.2191 81.1201C35.2191 81.3636 35.1866 81.4367 35.1866 81.4448C35.1785 81.4448 35.1055 81.4854 34.8702 81.4935C34.6429 81.5097 34.4238 81.4286 34.3021 81.3149C34.2534 81.2662 34.2128 81.2013 34.2291 81.0633C34.294 80.2679 34.4888 79.4643 34.716 78.6364C35 79.4481 35.2029 80.2679 35.211 81.1282L35.2191 81.1201ZM13.828 30.4708C14.1201 30.8523 14.5745 31.0633 15.0696 31.0146C15.6133 30.9578 15.8892 30.9334 16.3842 32.2808C16.8467 33.5471 17.3418 34.8052 17.8043 35.974C15.2562 36.3312 12.8298 37.151 10.582 38.4253C10.5576 38.1088 10.5495 37.8003 10.5495 37.4919C10.5495 34.2451 11.7343 31.2662 13.6981 28.9773L13.6332 29.1477C13.4628 29.6023 13.5358 30.0974 13.828 30.487V30.4708ZM36.3877 11.5422C36.6311 11.5422 36.8664 11.5503 37.1018 11.5747C39.658 11.8263 41.3297 13.3766 42.2792 14.6266C43.6912 16.4773 44.4945 18.9448 44.4702 21.3149C41.0781 21.9318 37.9457 23.6201 35.5437 26.1282C33.3445 23.8312 30.5043 22.2078 27.4368 21.4854C27.5585 18.8636 28.4431 16.5179 30.0012 14.6834C31.6972 12.6867 34.0262 11.5422 36.3877 11.5422ZM36.8096 37.638C36.339 38.2224 35.8602 38.8068 35.3733 39.3831C35.0081 38.9205 34.6429 38.4497 34.2859 37.987C34.2859 37.8166 34.2778 37.6542 34.2778 37.4838C34.2778 35.5357 34.716 33.612 35.5437 31.8588C36.3795 33.612 36.8096 35.5276 36.8096 37.4838C36.8096 37.5406 36.8096 37.5893 36.8096 37.6461V37.638ZM29.1004 49.9107C28.3619 48.0195 27.6316 46.1364 26.8931 44.2532C26.2845 42.7029 25.684 41.1607 25.0835 39.6104C27.6803 40.2841 30.1067 41.5584 32.1516 43.336C32.5249 43.6607 32.8739 43.9935 33.1985 44.3263C33.6367 44.7727 34.0587 45.2597 34.4563 45.7711L35.0081 46.4854L35.5031 45.836C35.706 45.5682 35.917 45.3084 36.1442 45.0568C36.3633 44.8052 36.5824 44.5617 36.8178 44.3263C37.5643 43.5552 38.3921 42.8571 39.2685 42.2403C41.5894 40.6007 44.2592 39.5617 47.0589 39.2045L40.2017 57.1672C38.9358 60.487 37.6617 63.8068 36.3877 67.1347C36.2984 67.3782 36.201 67.6217 36.1036 67.8653L35.4626 66.2338C35.0568 65.1948 34.6429 64.1558 34.2372 63.1169C33.4338 61.0633 32.6385 59.0016 31.8351 56.948L29.1085 49.9269L29.1004 49.9107ZM60.4405 39.0422C57.8356 37.3701 54.898 36.3068 51.8305 35.9253L51.8792 35.7955C52.3904 34.4643 52.9017 33.1331 53.4129 31.8019C53.7132 31.0065 53.9972 31.0146 54.3218 31.0308C54.6221 31.039 54.8736 30.9984 55.109 30.9578C55.1495 30.9578 55.1901 30.9416 55.2388 30.9334C55.6121 30.8847 55.9529 30.6899 56.172 30.3896C56.3993 30.0893 56.4885 29.7078 56.4317 29.3425L56.4074 29.1721C56.3019 28.4903 55.7257 27.987 55.0278 27.987H50.0046C49.4285 27.987 48.901 28.3523 48.6981 28.8961C48.4952 29.4399 48.6575 30.0568 49.0958 30.4383C49.4447 30.7386 49.8018 30.8685 50.0939 30.9416C49.8504 31.7532 49.5989 32.4919 49.3392 33.1818C49.1039 33.7987 48.8685 34.4075 48.6413 35.0244L48.3492 35.7873C45.8498 35.901 43.3828 36.4692 41.0944 37.4513C44.4296 32.8571 46.499 28.5471 47.3916 24.3506C54.6302 24.3506 60.5217 30.2435 60.5217 37.4838C60.5217 38.0032 60.4892 38.5227 60.4243 39.0422H60.4405ZM43.894 24.8295C43.1231 27.6705 41.7273 30.6007 39.6661 33.7257C39.2523 31.9724 38.5463 30.2841 37.5968 28.7581C39.2847 26.8669 41.4758 25.4951 43.9022 24.8214L43.894 24.8295ZM33.4906 28.7581C32.5249 30.3003 31.8189 32.0049 31.4051 33.7825C29.7577 31.0795 28.6216 28.5227 27.9481 26.0065C27.8588 25.6737 27.7776 25.3328 27.7127 24.9838C29.92 25.6981 31.9325 27.013 33.4906 28.7581ZM23.6552 35.974C22.9979 34.2938 22.3244 32.5649 21.7076 30.8442C21.6914 30.7955 21.6752 30.7468 21.6589 30.7062C21.7239 30.6737 21.7888 30.6412 21.8537 30.6088C22.438 30.3328 22.7626 29.6753 22.6246 29.0422C22.4786 28.401 21.9186 27.9545 21.2613 27.9545H15.029C14.8667 27.9545 14.7044 27.987 14.5502 28.0438C16.9117 25.7549 20.1333 24.3506 23.6715 24.3506C23.8581 24.3506 24.0529 24.3506 24.2639 24.3669C24.3693 25.2029 24.5398 26.039 24.7589 26.8588C25.7246 30.4789 27.5504 34.1721 30.3095 38.125C28.2321 37.0373 25.968 36.3068 23.6471 35.974H23.6552ZM19.0703 39.1396L25.2295 54.6753C26.0897 56.8507 26.9418 59.026 27.802 61.2013L27.9318 61.5422C29.076 64.4481 30.2203 67.3458 31.3726 70.2597C28.3295 72.6136 24.5641 73.9042 20.7176 73.9042C11.1094 73.9042 3.29469 66.0877 3.29469 56.4773C3.29469 51.4692 5.46951 46.6883 9.25922 43.3685C9.78669 42.9058 10.3466 42.4757 10.8984 42.0942C13.3248 40.4302 16.1407 39.4156 19.0703 39.1315V39.1396ZM39.5606 68.0357L39.7554 67.5325C40.713 65.0243 41.6624 62.5162 42.6119 60.0081L46.5071 49.7808C47.7406 46.5584 48.974 43.336 50.2156 40.1136L50.6051 39.1071C54.0053 39.3669 57.2189 40.6088 59.9374 42.711C60.4892 43.1412 61.0167 43.6039 61.5036 44.0828C64.847 47.3864 66.6972 51.7938 66.6972 56.4773C66.6972 66.0877 58.8824 73.9042 49.2743 73.9042C45.4602 73.9042 41.7192 72.6299 38.6842 70.3003C38.9845 69.5373 39.2766 68.7743 39.5606 68.0276V68.0357ZM35.9819 7.3539C34.9594 7.3539 34.1317 6.52597 34.1317 5.50325C34.1317 4.48052 34.9594 3.6526 35.9819 3.6526C37.0044 3.6526 37.8321 4.48052 37.8321 5.50325C37.8321 6.52597 37.0044 7.3539 35.9819 7.3539Z" />
<style>
  path { fill: #001925; }
  @media (prefers-color-scheme: dark){
    path { fill: #fff; }
  }
</style>
</svg>
