<svg width="42" height="112" viewBox="0 0 42 112" fill="none" xmlns="http://www.w3.org/2000/svg">
<g clip-path="url(#clip0_111_2240)">
<path d="M24.5523 53.4801H17.7885C16.3666 53.4801 15.2076 54.6595 15.2076 56.1065C15.2076 57.5535 16.3666 58.7329 17.7885 58.7329H20.1308V59.7686H18.9329C18.3339 59.7686 17.8421 60.2642 17.8421 60.8787C17.8421 61.4931 18.329 61.9887 18.9329 61.9887H20.1308V62.7469H18.9329C18.3339 62.7469 17.8421 63.2425 17.8421 63.8569C17.8421 64.4714 18.329 64.967 18.9329 64.967H20.1308V85.0617H19.4149C18.816 85.0617 18.3242 85.5572 18.3242 86.1717C18.3242 86.7862 18.8111 87.2817 19.4149 87.2817H20.1308V93.377H16.1767V105.325H15.3683V93.377H9.12555V95.5922H13.1916V100.26H9.12555V102.475H13.1916V105.32H9.12555V107.535H18.3534V95.5872H20.1308V110.9C20.1308 111.509 20.6177 112.01 21.2216 112.01C21.8254 112.01 22.3123 111.514 22.3123 110.9V87.2768H22.9064C23.5054 87.2768 23.9972 86.7812 23.9972 86.1668C23.9972 85.5523 23.5102 85.0567 22.9064 85.0567H22.3123V64.962H23.0622C23.6612 64.962 24.153 64.4665 24.153 63.852C24.153 63.2375 23.6661 62.7419 23.0622 62.7419H22.3123V61.9837H23.0622C23.6612 61.9837 24.153 61.4882 24.153 60.8737C24.153 60.2592 23.6661 59.7637 23.0622 59.7637H22.3123V58.728H24.5572C25.9791 58.728 27.1381 57.5485 27.1381 56.1015C27.1381 54.6545 25.9791 53.4751 24.5572 53.4751" fill="white"/>
<path d="M38.0264 25.2281C38.2066 24.46 38.2991 23.677 38.2991 22.889C38.2991 17.433 33.9944 12.978 28.6574 12.864C28.6379 11.0156 28.0195 9.16222 26.9433 7.72016C26.393 6.98178 25.4824 6.04519 24.153 5.49513C24.6351 4.90046 24.903 4.15218 24.903 3.3692C24.903 1.51583 23.4177 0.00439453 21.5965 0.00439453C19.7753 0.00439453 18.2901 1.51583 18.2901 3.3692C18.2901 4.20669 18.6066 5.01444 19.1569 5.63388C18.1537 6.08483 17.2431 6.78356 16.4981 7.6706C15.305 9.0978 14.6184 10.8867 14.4967 12.869C14.3993 12.869 14.3068 12.864 14.2094 12.864C8.77496 12.864 4.35339 17.3636 4.35339 22.894C4.35339 23.5134 4.41183 24.1329 4.52383 24.7424C1.64591 27.1558 0 30.699 0 34.485C0 41.4624 5.57565 47.1365 12.432 47.1365C15.0129 47.1365 17.4671 46.3436 19.5708 44.8371C19.7412 45.3475 19.6633 45.5259 19.2835 46.403L19.2689 46.4427C18.8355 47.4338 18.4849 48.3407 18.5579 49.4408C18.6163 50.2882 19.0838 51.0662 19.8094 51.5172C20.2184 51.7699 20.6859 51.9037 21.1631 51.9037C21.5089 51.9037 21.8449 51.8343 22.1614 51.6956C23.4664 51.1158 24.1482 49.6638 23.8268 48.1573C23.6953 47.5577 23.5297 46.9729 23.3642 46.3882C23.257 46.0215 23.1499 45.6399 23.0574 45.2682C25.015 46.5022 27.2452 47.1464 29.5729 47.1464C36.4292 47.1464 42.0049 41.4723 42.0049 34.4949C42.0049 30.9913 40.5586 27.6265 38.0313 25.238M21.1339 49.53C21.1339 49.6787 21.1144 49.7282 21.1144 49.7282C21.1096 49.7282 21.0609 49.753 20.9245 49.7579C20.7882 49.7629 20.6567 49.7183 20.5837 49.6489C20.5544 49.6192 20.5301 49.5795 20.5398 49.4953C20.5788 49.0146 20.6957 48.5191 20.832 48.0136C21.0024 48.5092 21.1242 49.0097 21.129 49.5349M8.29774 18.6075C8.47304 18.8404 8.74574 18.9692 9.04278 18.9395C9.36904 18.9048 9.53461 18.8899 9.83165 19.7125C10.1092 20.4856 10.4063 21.2537 10.6887 21.9673C9.15965 22.1854 7.70365 22.6859 6.35478 23.4639C6.34017 23.2706 6.3353 23.0823 6.3353 22.894C6.3353 20.9118 7.04626 19.0931 8.2247 17.6956L8.18574 17.7997C8.08348 18.0772 8.1273 18.3795 8.30261 18.6174M21.8351 7.05116C21.9812 7.05116 22.1224 7.05612 22.2637 7.07098C23.7976 7.22956 24.8007 8.17111 25.3704 8.93427C26.2177 10.0641 26.6998 11.5706 26.6852 13.0176C24.6497 13.3942 22.7701 14.425 21.3287 15.9563C20.009 14.5538 18.3047 13.5627 16.464 13.1217C16.537 11.5211 17.0678 10.0889 18.0028 8.96895C19.0205 7.74989 20.4181 7.05116 21.8351 7.05116ZM22.0835 22.9832C21.801 23.34 21.5137 23.6968 21.2216 24.0486C21.0024 23.7662 20.7833 23.4788 20.569 23.1963C20.569 23.0922 20.5642 22.9931 20.5642 22.889C20.5642 21.6997 20.8271 20.5253 21.3238 19.4549C21.8254 20.5253 22.0835 21.6997 22.0835 22.889C22.0835 22.9237 22.0835 22.9535 22.0835 22.9882M17.4623 30.476C17.024 29.3213 16.5809 28.1716 16.1377 27.022C15.7774 26.0804 15.4122 25.1339 15.0518 24.1874C16.6101 24.5987 18.0612 25.3767 19.2932 26.462C19.5123 26.6602 19.7266 26.8634 19.9214 27.0666C20.1843 27.3391 20.4376 27.6364 20.6762 27.9486L21.0073 28.3847L21.3043 27.9883C21.4261 27.8248 21.5527 27.6662 21.689 27.5126C21.8205 27.3589 21.952 27.2103 22.0932 27.0666C22.5412 26.5958 23.0379 26.1696 23.5638 25.793C24.9565 24.792 26.5586 24.1577 28.2386 23.9396L24.1238 34.9062C23.3593 36.933 22.5997 38.9598 21.8351 40.9867C21.7816 41.1353 21.7231 41.284 21.6647 41.4327L21.28 40.4366C21.0365 39.8023 20.7882 39.168 20.5447 38.5337C20.0626 37.2799 19.5854 36.0212 19.1033 34.7675L17.4671 30.4809L17.4623 30.476ZM36.2637 23.8405C34.7005 22.8197 32.9377 22.1705 31.097 21.9376L31.1263 21.8583C31.433 21.0456 31.7398 20.2329 32.0466 19.4202C32.2317 18.9345 32.3972 18.9395 32.592 18.9494C32.7722 18.9544 32.9231 18.9296 33.0644 18.9048C33.0887 18.9048 33.113 18.8949 33.1423 18.8899C33.3663 18.8602 33.5708 18.7413 33.7023 18.5579C33.8386 18.3746 33.897 18.1416 33.8581 17.9186L33.8435 17.8146C33.7802 17.3934 33.4344 17.0911 33.0157 17.0911H30.0014C29.6557 17.0911 29.3391 17.3141 29.2174 17.6461C29.0957 17.9781 29.193 18.3547 29.456 18.5876C29.6654 18.771 29.8797 18.8503 30.055 18.8949C29.9089 19.3904 29.7579 19.8414 29.6021 20.2626C29.4609 20.6392 29.3197 21.0109 29.1833 21.3875L29.008 21.8533C27.5082 21.9227 26.0278 22.2696 24.6546 22.8692C26.656 20.0644 27.8977 17.433 28.4334 14.871H28.4383C32.7819 14.871 36.3172 18.4687 36.3172 22.889C36.3172 23.2062 36.2977 23.5234 36.2588 23.8405M26.3395 15.1634C25.8769 16.8978 25.0393 18.6868 23.8024 20.5946C23.5541 19.5242 23.1304 18.4935 22.5607 17.5618C23.5687 16.4072 24.8883 15.5697 26.3395 15.1584M20.0967 17.5618C19.5172 18.5034 19.0936 19.5441 18.8452 20.6293C17.8567 18.9791 17.175 17.4181 16.7708 15.8819C16.7172 15.6787 16.6685 15.4706 16.6296 15.2575C17.9541 15.6936 19.1617 16.4964 20.0967 17.5618ZM14.1948 21.9673C13.8003 20.9415 13.3962 19.886 13.0261 18.8354C13.0163 18.8057 13.0066 18.776 12.9969 18.7512C13.0358 18.7314 13.0797 18.7115 13.1137 18.6917C13.4643 18.5232 13.6591 18.1218 13.5763 17.7353C13.4887 17.3438 13.1576 17.0713 12.7631 17.0713H9.0233C8.92104 17.0713 8.82365 17.0911 8.736 17.1208C10.153 15.7233 12.0863 14.866 14.2094 14.866C14.3214 14.866 14.4383 14.866 14.5649 14.8759C14.6282 15.3864 14.7304 15.8968 14.8619 16.4023C15.4463 18.6124 16.537 20.8672 18.1927 23.2805C16.9461 22.6165 15.5875 22.1705 14.1948 21.9673ZM11.4435 23.9L15.1395 33.3849C15.6557 34.7129 16.167 36.041 16.6831 37.3691L16.761 37.5772C17.4477 39.3513 18.1343 41.1205 18.8257 42.8995C16.9997 44.3366 14.7402 45.1245 12.432 45.1245C6.66644 45.1245 1.97704 40.3523 1.97704 34.485C1.97704 31.4274 3.28209 28.5086 5.55617 26.4818C5.87757 26.1993 6.2087 25.9367 6.53983 25.7038C7.99583 24.6879 9.68557 24.0685 11.4435 23.895M23.744 41.5417L23.8609 41.2344C24.4355 39.7032 25.0052 38.1719 25.575 36.6407L27.9123 30.3967C28.6525 28.4293 29.3976 26.462 30.1377 24.4946L30.3666 23.8802C32.407 24.0387 34.3353 24.7969 35.9666 26.0854C36.2977 26.348 36.6143 26.6305 36.9064 26.9229C38.9127 28.9398 40.023 31.6306 40.023 34.4899C40.023 40.3573 35.3336 45.1295 29.568 45.1295C27.2793 45.1295 25.0344 44.3515 23.2132 42.9292C23.3934 42.4634 23.5687 41.9976 23.744 41.5417ZM21.5917 4.49411C20.9781 4.49411 20.4814 3.98864 20.4814 3.36425C20.4814 2.73985 20.9781 2.23438 21.5917 2.23438C22.2052 2.23438 22.7019 2.73985 22.7019 3.36425C22.7019 3.98864 22.2052 4.49411 21.5917 4.49411Z" fill="white"/>
</g>
<defs>
<clipPath id="clip0_111_2240">
<rect width="42" height="112" fill="white"/>
</clipPath>
</defs>
</svg>
