<svg width="167" height="167" viewBox="0 0 167 167" fill="none" xmlns="http://www.w3.org/2000/svg">
<g clip-path="url(#clip0_241_5353)">
<path d="M163.709 82.9372C163.709 89.9163 158.397 96.1006 156.678 102.536C154.899 109.195 156.354 117.198 152.982 123.028C149.561 128.94 141.87 131.661 137.071 136.463C132.273 141.261 129.553 148.953 123.636 152.373C117.806 155.746 109.803 154.291 103.144 156.07C96.7088 157.789 90.5244 163.101 83.5454 163.101C76.5664 163.101 70.382 157.789 63.9471 156.07C57.2877 154.291 49.2851 155.746 43.4549 152.373C37.5425 148.953 34.8218 141.261 30.0194 136.463C25.2213 131.665 17.5297 128.944 14.1093 123.028C10.7363 117.198 12.1917 109.195 10.4124 102.536C8.6936 96.1006 3.38159 89.9163 3.38159 82.9372C3.38159 75.9582 8.6936 69.7738 10.4124 63.339C12.1917 56.6795 10.7363 48.6769 14.1093 42.8467C17.5297 36.9344 25.2213 34.2136 30.0194 29.4112C34.8174 24.6131 37.5382 16.9215 43.4549 13.5011C49.2851 10.1282 57.2877 11.5836 63.9471 9.80429C70.382 8.08544 76.5664 2.77344 83.5454 2.77344C90.5244 2.77344 96.7088 8.08544 103.144 9.80429C109.803 11.5836 117.806 10.1282 123.636 13.5011C129.548 16.9215 132.269 24.6131 137.071 29.4112C141.87 34.2093 149.561 36.9301 152.982 42.8467C156.354 48.6769 154.899 56.6795 156.678 63.339C158.397 69.7738 163.709 75.9582 163.709 82.9372Z" fill="#2B2B2B"/>
<path d="M83.6662 38.4922C59.1576 38.4922 39.2181 58.4316 39.2181 82.9403C39.2181 107.449 59.1576 127.388 83.6662 127.388C108.175 127.388 128.114 107.449 128.114 82.9403C128.114 58.4316 108.175 38.4922 83.6662 38.4922ZM83.6662 125.605C60.1423 125.605 41.0061 106.469 41.0061 82.9446C41.0061 59.4206 60.1423 40.2844 83.6662 40.2844C107.19 40.2844 126.326 59.4206 126.326 82.9446C126.326 106.469 107.19 125.605 83.6662 125.605Z" fill="#6DD4DA"/>
<path d="M83.6662 127.611C59.0323 127.611 38.9935 107.572 38.9935 82.9383C38.9935 58.3044 59.0323 38.2656 83.6662 38.2656C108.3 38.2656 128.339 58.3044 128.339 82.9383C128.339 107.572 108.3 127.611 83.6662 127.611ZM83.6662 38.7148C59.2785 38.7148 39.4427 58.5549 39.4427 82.9383C39.4427 107.322 59.2828 127.162 83.6662 127.162C108.05 127.162 127.89 107.322 127.89 82.9383C127.89 58.5549 108.05 38.7148 83.6662 38.7148ZM83.6662 125.823C60.0213 125.823 40.7815 106.583 40.7815 82.9383C40.7815 59.2934 60.017 40.0536 83.6662 40.0536C107.315 40.0536 126.551 59.2891 126.551 82.9383C126.551 106.588 107.315 125.823 83.6662 125.823ZM83.6662 40.5027C60.2675 40.5027 41.2306 59.5396 41.2306 82.9383C41.2306 106.337 60.2675 125.374 83.6662 125.374C107.065 125.374 126.102 106.337 126.102 82.9383C126.102 59.5396 107.065 40.5027 83.6662 40.5027Z" fill="#6DD4DA"/>
<path d="M39.9912 33.0391L44.9404 45.2567L42.6212 47.727L30.1013 43.5767L32.1009 41.4433L42.2714 45.0753L37.9873 35.1725L39.9912 33.0391Z" fill="#6DD4DA"/>
<path d="M57.0328 33.422L51.3969 36.7949L51.7208 39.3343L49.2116 40.8372L47.8124 27.717L50.7189 25.9766L61.6106 33.4091L59.1015 34.912L57.0328 33.422ZM55.1628 32.0919L50.3431 28.6369L51.1119 34.5146L55.1628 32.0875V32.0919Z" fill="#6DD4DA"/>
<path d="M74.7611 17.75L77.361 29.4364L74.3422 30.1101L66.0028 23.2045L67.8641 31.5526L65.1779 32.1529L62.5737 20.4665L65.5752 19.7971L73.919 26.7156L72.0533 18.3546L74.7611 17.75Z" fill="#6DD4DA"/>
<path d="M88.8228 30.0673C85.0137 29.6787 81.7962 27.4761 82.2411 23.1229C82.6859 18.7826 86.3784 17.2883 89.7988 17.6338C92.8435 17.9447 95.4045 19.4606 95.953 22.3541L93.0767 22.0605C92.6492 20.8642 91.6256 19.9184 89.5872 19.7111C86.7455 19.4217 85.2642 21.1276 85.0353 23.4079C84.8021 25.7055 86.1279 27.6964 89.0517 27.9944C91.8243 28.2751 92.8564 26.7506 93.1026 25.537L89.1899 25.1397L89.4015 23.0451L96.1214 23.7318C95.9918 28.5472 92.9731 30.4949 88.8228 30.0717" fill="#6DD4DA"/>
<path d="M114.415 31.9093C112.507 36.0768 108.473 36.0509 105.333 34.6128C102.193 33.1747 99.5245 30.1256 101.433 25.9581C103.338 21.8078 107.385 21.8381 110.524 23.2762C113.664 24.7143 116.316 27.7547 114.415 31.905M111.863 30.7432C112.839 28.6141 112.36 26.4159 109.656 25.1764C106.953 23.9369 104.975 25.008 103.999 27.1371C103.014 29.2835 103.493 31.4774 106.201 32.7169C108.905 33.9563 110.883 32.8853 111.867 30.7432" fill="#6DD4DA"/>
<path d="M136.981 44.3771L125.458 49.7237L123.195 47.4175L127.324 39.9504L119.775 43.9193L117.512 41.6131L123.096 30.2031L125.143 32.2934L120.738 40.7753L129.129 36.3659L130.947 38.223L126.361 46.5192L134.921 42.2782L136.981 44.3771Z" fill="#6DD4DA"/>
<path d="M33.7853 115.759L34.6922 117.392C32.481 118.195 30.7017 116.925 29.7127 115.146C28.6158 113.172 28.551 110.706 31.1206 109.277C33.6902 107.852 35.7416 109.216 36.8343 111.19C37.8232 112.969 37.9614 115.154 36.1087 116.606L35.2018 114.973C35.9748 114.273 36.4283 113.267 35.6423 111.851C34.7311 110.21 33.3318 110.153 32.0146 110.888C30.6844 111.626 29.9934 112.84 30.9047 114.481C31.6907 115.897 32.7833 116.044 33.7853 115.755" fill="#6DD4DA"/>
<path d="M38.1947 126.816L33.7982 121.405L39.866 116.469L44.1933 121.794L43.1223 122.666L39.9265 118.74L38.5833 119.833L41.5805 123.517L40.5138 124.385L37.5166 120.701L36.0094 121.928L39.27 125.94L38.1947 126.816Z" fill="#6DD4DA"/>
<path d="M45.1521 133.244L45.6401 130.161C45.6401 130.161 45.6142 130.139 45.6056 130.13L43.4894 128.291L41.7533 130.29L40.3972 129.111L45.5235 123.203L49.1685 126.369C50.7707 127.759 50.9305 129.245 49.8984 130.437C49.0908 131.365 48.1709 131.543 47.1603 131.137L46.6637 134.553L45.1521 133.24V133.244ZM44.3834 127.263L46.6205 129.206C47.4497 129.923 48.0888 129.729 48.5164 129.241C48.9569 128.735 49.0562 128.109 48.2098 127.375L45.9727 125.432L44.3834 127.263Z" fill="#6DD4DA"/>
<path d="M58.4839 134.35L55.9488 132.821L52.6234 138.332L51.0817 137.399L54.4114 131.888L51.8763 130.36L52.5932 129.172L59.2008 133.167L58.4839 134.35Z" fill="#6DD4DA"/>
<path d="M60.9408 133.88L57.7559 141.023L59.3967 141.755L62.5816 134.612L60.9408 133.88Z" fill="#6DD4DA"/>
<path d="M66.0114 137.396L65.4414 139.253L69.9803 140.648L69.5744 141.961L65.0354 140.566L64.1198 143.546L62.401 143.019L64.6985 135.539L71.2673 137.56L70.8613 138.886L66.0114 137.396Z" fill="#6DD4DA"/>
<path d="M73.1278 137.833L71.7468 145.531L73.5194 145.849L74.9004 138.151L73.1278 137.833Z" fill="#6DD4DA"/>
<path d="M83.7052 146.772L76.7434 146.383L77.1796 138.57L84.0291 138.955L83.9513 140.341L78.8984 140.056L78.7991 141.788L83.5454 142.051L83.4676 143.425L78.7257 143.157L78.6134 145.1L83.7829 145.39L83.7052 146.772Z" fill="#6DD4DA"/>
<path d="M94.6487 141.855C95.0115 144.951 92.8392 146.005 90.4207 146.29L86.8923 146.705L85.9811 138.936L89.5095 138.521C91.9279 138.236 94.286 138.758 94.6487 141.855ZM92.8176 142.071C92.5844 140.076 91.3449 139.7 89.4922 139.92L87.9375 140.102L88.5248 145.12L90.0795 144.939C91.9323 144.723 93.0508 144.083 92.8133 142.075" fill="#6DD4DA"/>
<path d="M107.704 140.099L103.718 141.689L103.662 143.36L101.887 144.068L102.353 135.461L104.409 134.641L110.658 140.57L108.883 141.278L107.704 140.099ZM106.633 139.046L103.886 136.316L103.77 140.19L106.633 139.046Z" fill="#6DD4DA"/>
<path d="M116.437 137.319C114.316 138.654 111.777 138.809 110.252 136.391C108.736 133.981 110.036 131.722 111.936 130.526C113.629 129.459 115.56 129.213 117.002 130.483L115.404 131.489C114.705 131.044 113.798 130.967 112.662 131.684C111.081 132.677 111.008 134.149 111.803 135.419C112.606 136.698 114.092 137.19 115.715 136.166C117.257 135.195 117.175 133.994 116.812 133.273L114.636 134.642L113.902 133.48L117.637 131.131C119.507 133.661 118.734 135.877 116.428 137.328" fill="#6DD4DA"/>
<path d="M127.588 128.197L122.435 132.892L117.167 127.113L122.237 122.492L123.17 123.516L119.43 126.923L120.596 128.206L124.107 125.006L125.031 126.021L121.524 129.221L122.833 130.659L126.655 127.174L127.588 128.197Z" fill="#6DD4DA"/>
<path d="M128.542 114.633L134.748 119.401L133.517 121.003L126.443 121.037L130.874 124.441L129.781 125.87L123.575 121.107L124.802 119.509L131.88 119.478L127.441 116.071L128.542 114.633Z" fill="#6DD4DA"/>
<path d="M134.208 106.951L132.852 109.585L138.574 112.531L137.754 114.129L132.031 111.183L130.675 113.818L129.445 113.183L132.977 106.32L134.208 106.951Z" fill="#6DD4DA"/>
<path d="M83.4979 45.6797C62.6126 45.6797 45.679 62.6133 45.679 83.4986C45.679 104.384 62.6126 121.317 83.4979 121.317C104.383 121.317 121.317 104.384 121.317 83.4986C121.317 62.6133 104.383 45.6797 83.4979 45.6797Z" fill="#6DD4DA"/>
<path d="M76.4367 100.547L76.0437 100.888L75.5687 100.404L61.4595 85.1289L69.0129 78.1499L76.6138 86.3814L98.5615 66.1094L105.54 73.6628L76.4367 100.547Z" fill="#2B2B2B"/>
<path d="M83.498 167C78.687 167 74.4115 164.905 70.2742 162.88C67.7607 161.649 65.3897 160.487 63.036 159.857C60.5485 159.192 57.8277 158.997 54.9514 158.794C50.4211 158.471 45.7353 158.138 41.7362 155.828C37.6766 153.478 35.0379 149.561 32.4898 145.774C30.8962 143.407 29.3933 141.17 27.6097 139.386C25.8304 137.607 23.5933 136.1 21.2223 134.506C17.4348 131.958 13.5178 129.324 11.1641 125.26C8.84924 121.261 8.5167 116.575 8.19712 112.044C7.99414 109.168 7.7998 106.452 7.13472 103.96C6.50418 101.606 5.34245 99.2352 4.11162 96.7217C2.08615 92.5887 -0.00842285 88.3132 -0.00842285 83.5022C-0.00842285 78.6911 2.08615 74.4156 4.11162 70.2783C5.34245 67.7648 6.50418 65.3938 7.13472 63.0401C7.7998 60.5526 7.99414 57.8318 8.19712 54.9555C8.52102 50.4252 8.85356 45.7394 11.1641 41.7403C13.5134 37.6807 17.4305 35.0463 21.218 32.4939C23.5847 30.9003 25.8217 29.3974 27.6054 27.6138C29.3847 25.8345 30.8919 23.5974 32.4855 21.2264C35.0335 17.4389 37.668 13.5219 41.7275 11.1725C45.7267 8.86198 50.4125 8.52512 54.9428 8.20554C57.819 8.00256 60.5398 7.80822 63.0274 7.14314C65.3811 6.51261 67.7564 5.35088 70.2655 4.12004C74.3985 2.09457 78.6741 0 83.4851 0C88.2961 0 92.5716 2.09457 96.7047 4.12004C99.2181 5.35088 101.589 6.51261 103.943 7.14314C106.435 7.80822 109.151 8.00256 112.027 8.20554C116.558 8.52944 121.244 8.86198 125.243 11.1725C129.302 13.5219 131.941 17.4389 134.489 21.2264C136.083 23.5931 137.585 25.8302 139.369 27.6138C141.148 29.3931 143.386 30.9003 145.756 32.4896C149.544 35.0377 153.461 37.6764 155.81 41.736C158.125 45.7351 158.458 50.4209 158.777 54.9512C158.98 57.8275 159.175 60.5482 159.84 63.0358C160.47 65.3895 161.632 67.7605 162.863 70.274C164.888 74.407 166.983 78.6825 166.983 83.4978C166.983 88.3132 164.888 92.5844 162.863 96.7217C161.632 99.2352 160.47 101.606 159.84 103.96C159.175 106.447 158.98 109.168 158.777 112.044C158.453 116.575 158.121 121.261 155.81 125.26C153.461 129.319 149.544 131.958 145.752 134.506C143.386 136.1 141.148 137.603 139.369 139.382C137.59 141.161 136.083 143.398 134.493 145.769C131.945 149.557 129.311 153.474 125.247 155.823C121.248 158.138 116.562 158.471 112.032 158.79C109.155 158.993 106.435 159.187 103.947 159.853C101.593 160.483 99.2181 161.645 96.709 162.876C92.576 164.901 88.3005 166.996 83.4851 166.996M83.498 4.46986C79.7235 4.46986 76.0915 6.24917 72.2435 8.13644C69.648 9.40614 66.9704 10.7233 64.1934 11.4662C61.2913 12.2435 58.2293 12.4595 55.271 12.6711C51.0603 12.9691 47.0827 13.2541 43.9776 15.0507C40.812 16.8818 38.5749 20.2115 36.2039 23.7313C34.5628 26.1714 32.8656 28.6935 30.7753 30.7837C28.6894 32.8697 26.1629 34.5669 23.7229 36.2123C20.1988 38.5833 16.8734 40.8204 15.0423 43.986C13.2457 47.0912 12.9606 51.0687 12.6627 55.2794C12.451 58.2377 12.2351 61.2997 11.4577 64.2019C10.7149 66.9788 9.40203 69.6607 8.12802 72.2519C6.24506 76.0956 4.46144 79.7276 4.46144 83.5065C4.46144 87.2853 6.24074 90.9131 8.12802 94.761C9.39772 97.3566 10.7149 100.038 11.4577 102.811C12.2308 105.713 12.451 108.771 12.6627 111.734C12.9606 115.944 13.2457 119.922 15.0423 123.027C16.8734 126.193 20.2031 128.434 23.7229 130.801C26.1629 132.442 28.685 134.139 30.7753 136.225C32.8656 138.311 34.5585 140.837 36.2039 143.277C38.5749 146.797 40.812 150.127 43.9776 151.958C47.0827 153.755 51.0603 154.035 55.271 154.338C58.2293 154.549 61.2913 154.765 64.1934 155.542C66.9704 156.285 69.6523 157.598 72.2435 158.872C76.0872 160.755 79.7192 162.539 83.498 162.539C87.2769 162.539 90.9046 160.759 94.7526 158.872C97.3438 157.602 100.026 156.285 102.803 155.542C105.705 154.765 108.767 154.549 111.725 154.338C115.936 154.04 119.913 153.755 123.019 151.958C126.184 150.127 128.421 146.797 130.792 143.277C132.433 140.837 134.131 138.315 136.216 136.225C138.302 134.139 140.829 132.442 143.269 130.801C146.793 128.43 150.118 126.193 151.95 123.027C153.746 119.922 154.031 115.944 154.329 111.734C154.541 108.775 154.757 105.713 155.534 102.811C156.277 100.034 157.59 97.3522 158.864 94.761C160.747 90.9174 162.53 87.281 162.53 83.5065C162.53 79.7319 160.751 76.0999 158.864 72.2519C157.594 69.6564 156.277 66.9788 155.534 64.2019C154.761 61.2997 154.541 58.2377 154.329 55.2794C154.031 51.0687 153.746 47.0912 151.95 43.986C150.118 40.8204 146.789 38.5833 143.269 36.2123C140.829 34.5712 138.307 32.874 136.216 30.788C134.131 28.7021 132.433 26.1757 130.788 23.7356C128.417 20.2115 126.18 16.8861 123.014 15.055C119.909 13.2584 115.932 12.9777 111.721 12.6754C108.762 12.4638 105.701 12.2478 102.798 11.4705C100.021 10.7277 97.3395 9.41478 94.7483 8.14076C90.9046 6.2578 87.2683 4.47418 83.4937 4.47418" fill="#6DD4DA"/>
</g>
<defs>
<clipPath id="clip0_241_5353">
<rect width="167" height="167" fill="white"/>
</clipPath>
</defs>
</svg>
